<?xml version="1.0" encoding="utf-8"?>
<!-- Generator: Adobe Illustrator 23.0.0, SVG Export Plug-In . SVG Version: 6.00 Build 0)  -->
<!DOCTYPE svg PUBLIC "-//W3C//DTD SVG 1.1//EN" "http://www.w3.org/Graphics/SVG/1.1/DTD/svg11.dtd" [
	<!ENTITY ns_extend "http://ns.adobe.com/Extensibility/1.0/">
	<!ENTITY ns_ai "http://ns.adobe.com/AdobeIllustrator/10.0/">
	<!ENTITY ns_graphs "http://ns.adobe.com/Graphs/1.0/">
	<!ENTITY ns_vars "http://ns.adobe.com/Variables/1.0/">
	<!ENTITY ns_imrep "http://ns.adobe.com/ImageReplacement/1.0/">
	<!ENTITY ns_sfw "http://ns.adobe.com/SaveForWeb/1.0/">
	<!ENTITY ns_custom "http://ns.adobe.com/GenericCustomNamespace/1.0/">
	<!ENTITY ns_adobe_xpath "http://ns.adobe.com/XPath/1.0/">
	<!ENTITY st0 "fill:#42392B;">
]>
<svg version="1.1" id="图层_1" xmlns:x="&ns_extend;" xmlns:i="&ns_ai;" xmlns:graph="&ns_graphs;"
	 xmlns="http://www.w3.org/2000/svg" xmlns:xlink="http://www.w3.org/1999/xlink" x="0px" y="0px" viewBox="0 0 200 200"
	 style="enable-background:new 0 0 200 200;" xml:space="preserve">
<metadata>
	<sfw  xmlns="&ns_sfw;">
		<slices></slices>
		<sliceSourceBounds  bottomLeftOrigin="true" height="175.31" width="175.06" x="12.7" y="12.3"></sliceSourceBounds>
	</sfw>
</metadata>
<path style="&st0;" d="M178.63,12.38H55.08c-2.52,0-4.57,2.05-4.57,4.57v4.38c0,2.09,1.7,3.77,3.77,3.77h109.49
	c6.13,0,11.09,4.96,11.09,11.09v121.07c0,2.71,2.21,4.92,4.92,4.92h3.13c2.66,0,4.84-2.19,4.84-4.84V21.52
	C187.77,16.5,183.67,12.38,178.63,12.38z"/>
<path style="&st0;" d="M156.93,37.6H18.55c-3.22,0-5.86,2.64-5.86,5.86v138.38c0,3.22,2.64,5.86,5.86,5.86h138.36
	c3.22,0,5.86-2.64,5.86-5.86V43.46C162.79,40.23,160.16,37.6,156.93,37.6z M137.5,112.56c0,5.1-4.18,9.28-9.28,9.28H96.78v31.45
	c0,5.1-4.18,9.28-9.28,9.28s-9.28-4.18-9.28-9.28v-31.45H46.78c-5.1,0-9.28-4.18-9.28-9.28c0-5.1,4.18-9.28,9.28-9.28h31.45V71.84
	c0-5.1,4.18-9.28,9.28-9.28s9.28,4.18,9.28,9.28v31.45h31.45C133.32,103.28,137.5,107.44,137.5,112.56z"/>
</svg>
