<?xml version="1.0" encoding="utf-8"?>
<!-- Generator: Adobe Illustrator 23.0.0, SVG Export Plug-In . SVG Version: 6.00 Build 0)  -->
<!DOCTYPE svg PUBLIC "-//W3C//DTD SVG 1.1//EN" "http://www.w3.org/Graphics/SVG/1.1/DTD/svg11.dtd" [
	<!ENTITY ns_extend "http://ns.adobe.com/Extensibility/1.0/">
	<!ENTITY ns_ai "http://ns.adobe.com/AdobeIllustrator/10.0/">
	<!ENTITY ns_graphs "http://ns.adobe.com/Graphs/1.0/">
	<!ENTITY ns_vars "http://ns.adobe.com/Variables/1.0/">
	<!ENTITY ns_imrep "http://ns.adobe.com/ImageReplacement/1.0/">
	<!ENTITY ns_sfw "http://ns.adobe.com/SaveForWeb/1.0/">
	<!ENTITY ns_custom "http://ns.adobe.com/GenericCustomNamespace/1.0/">
	<!ENTITY ns_adobe_xpath "http://ns.adobe.com/XPath/1.0/">
	<!ENTITY st0 "fill:#F82828;">
]>
<svg version="1.1" id="图层_1" xmlns:x="&ns_extend;" xmlns:i="&ns_ai;" xmlns:graph="&ns_graphs;"
	 xmlns="http://www.w3.org/2000/svg" xmlns:xlink="http://www.w3.org/1999/xlink" x="0px" y="0px" viewBox="0 0 200 200"
	 style="enable-background:new 0 0 200 200;" xml:space="preserve">
<metadata>
	<sfw  xmlns="&ns_sfw;">
		<slices></slices>
		<sliceSourceBounds  bottomLeftOrigin="true" height="200" width="177.49" x="11.25" y="0"></sliceSourceBounds>
	</sfw>
</metadata>
<path style="&st0;" d="M58.72,37.5V25c0-13.81,11.09-25,24.77-25h33.02c13.68,0,24.77,11.19,24.77,25v12.5h35.09
	c6.84,0,12.38,5.6,12.38,12.5v4.17c0,6.9-5.54,12.5-12.38,12.5h-4.13v100c0,18.41-14.78,33.33-33.02,33.33H60.79
	c-18.24,0-33.02-14.92-33.02-33.33v-100h-4.13c-6.84,0-12.38-5.6-12.38-12.5V50c0-6.9,5.54-12.5,12.38-12.5
	C23.64,37.5,58.72,37.5,58.72,37.5z M79.36,37.5h41.28v-8.33c0-4.6-3.7-8.33-8.26-8.33H87.62c-4.56,0-8.26,3.73-8.26,8.33
	L79.36,37.5L79.36,37.5z M64.91,67.71c-2.28,0-4.13,1.87-4.13,4.17v0v85.42c0,6.9,5.54,12.5,12.38,12.5h3.1
	c6.84,0,12.38-5.6,12.38-12.5V71.87c0-2.3-1.85-4.17-4.13-4.17l0,0C84.52,67.71,64.91,67.71,64.91,67.71z M115.48,67.71
	c-2.28,0-4.13,1.87-4.13,4.17v85.42c0,6.9,5.54,12.5,12.38,12.5h3.1c6.84,0,12.38-5.6,12.38-12.5V71.87c0-2.3-1.85-4.17-4.13-4.17
	L115.48,67.71L115.48,67.71z"/>
</svg>
