<?xml version="1.0" encoding="utf-8"?>
<!-- Generator: Adobe Illustrator 23.0.0, SVG Export Plug-In . SVG Version: 6.00 Build 0)  -->
<!DOCTYPE svg PUBLIC "-//W3C//DTD SVG 1.1//EN" "http://www.w3.org/Graphics/SVG/1.1/DTD/svg11.dtd" [
	<!ENTITY ns_extend "http://ns.adobe.com/Extensibility/1.0/">
	<!ENTITY ns_ai "http://ns.adobe.com/AdobeIllustrator/10.0/">
	<!ENTITY ns_graphs "http://ns.adobe.com/Graphs/1.0/">
	<!ENTITY ns_vars "http://ns.adobe.com/Variables/1.0/">
	<!ENTITY ns_imrep "http://ns.adobe.com/ImageReplacement/1.0/">
	<!ENTITY ns_sfw "http://ns.adobe.com/SaveForWeb/1.0/">
	<!ENTITY ns_custom "http://ns.adobe.com/GenericCustomNamespace/1.0/">
	<!ENTITY ns_adobe_xpath "http://ns.adobe.com/XPath/1.0/">
	<!ENTITY st0 "fill:#42392B;">
	<!ENTITY st1 "fill:#FFFFFF;">
]>
<svg version="1.1" id="图层_1" xmlns:x="&ns_extend;" xmlns:i="&ns_ai;" xmlns:graph="&ns_graphs;"
	 xmlns="http://www.w3.org/2000/svg" xmlns:xlink="http://www.w3.org/1999/xlink" x="0px" y="0px" viewBox="0 0 36 36"
	 style="enable-background:new 0 0 36 36;" xml:space="preserve">
<metadata>
	<sfw  xmlns="&ns_sfw;">
		<slices></slices>
		<sliceSourceBounds  bottomLeftOrigin="true" height="32" width="32" x="2" y="2"></sliceSourceBounds>
	</sfw>
</metadata>
<g>
	<circle style="&st0;" cx="18" cy="18" r="16"/>
</g>
<path style="&st1;" d="M17.92,10.75c-4.27,0-7.27,1.83-7.27,1.83c1.64-1.47,4.51-2.31,4.51-2.31L14.9,10
	c-2.69,0.05-5.13,1.91-5.13,1.91C7.02,17.64,7.2,22.58,7.2,22.58c2.23,2.89,5.55,2.68,5.55,2.68l1.13-1.43
	c-1.99-0.43-3.25-2.2-3.25-2.2s3,2.04,7.3,2.04s7.3-2.04,7.3-2.04s-1.26,1.77-3.25,2.2l1.13,1.43c0,0,3.32,0.21,5.55-2.68
	c0,0,0.18-4.94-2.57-10.66c0,0-2.44-1.87-5.13-1.91l-0.27,0.27c0,0,2.87,0.84,4.51,2.31C25.19,12.58,22.2,10.75,17.92,10.75
	 M14.62,16.79c1.04,0,1.88,0.91,1.87,2.02c0,1.1-0.83,2.02-1.87,2.02c-1.02,0-1.85-0.92-1.85-2.02
	C12.77,17.7,13.59,16.79,14.62,16.79 M21.27,16.79c1.04,0,1.87,0.91,1.87,2.02c0,1.1-0.83,2.02-1.87,2.02
	c-1.02,0-1.85-0.92-1.85-2.02C19.42,17.7,20.24,16.79,21.27,16.79z"/>
</svg>
