<?xml version="1.0" encoding="utf-8"?>
<!-- Generator: Adobe Illustrator 23.0.0, SVG Export Plug-In . SVG Version: 6.00 Build 0)  -->
<!DOCTYPE svg PUBLIC "-//W3C//DTD SVG 1.1//EN" "http://www.w3.org/Graphics/SVG/1.1/DTD/svg11.dtd" [
	<!ENTITY ns_extend "http://ns.adobe.com/Extensibility/1.0/">
	<!ENTITY ns_ai "http://ns.adobe.com/AdobeIllustrator/10.0/">
	<!ENTITY ns_graphs "http://ns.adobe.com/Graphs/1.0/">
	<!ENTITY ns_vars "http://ns.adobe.com/Variables/1.0/">
	<!ENTITY ns_imrep "http://ns.adobe.com/ImageReplacement/1.0/">
	<!ENTITY ns_sfw "http://ns.adobe.com/SaveForWeb/1.0/">
	<!ENTITY ns_custom "http://ns.adobe.com/GenericCustomNamespace/1.0/">
	<!ENTITY ns_adobe_xpath "http://ns.adobe.com/XPath/1.0/">
	<!ENTITY st0 "fill:#AD8141;">
]>
<svg version="1.1" id="图层_1" xmlns:x="&ns_extend;" xmlns:i="&ns_ai;" xmlns:graph="&ns_graphs;"
	 xmlns="http://www.w3.org/2000/svg" xmlns:xlink="http://www.w3.org/1999/xlink" x="0px" y="0px" viewBox="0 0 200 200"
	 style="enable-background:new 0 0 200 200;" xml:space="preserve">
<metadata>
	<sfw  xmlns="&ns_sfw;">
		<slices></slices>
		<sliceSourceBounds  bottomLeftOrigin="true" height="200" width="200" x="0" y="0"></sliceSourceBounds>
	</sfw>
</metadata>
<path style="&st0;" d="M187.5,200H13.57C6.08,200,0,193.92,0,186.43c0,0,0,0,0,0v-73.64c0-0.19,0.05-0.37,0.14-0.54l24.71-42.81
	C24.95,69.28,25,69.1,25,68.91V13.57C25,6.08,31.08,0,38.57,0c0,0,0,0,0,0h98.48c0.28,0,0.56,0.11,0.76,0.32l36.87,36.87
	c0.2,0.2,0.31,0.47,0.31,0.76v36.74c0,0.21,0.06,0.42,0.18,0.6l24.64,36.96c0.12,0.18,0.18,0.38,0.18,0.6v74.68
	C200,194.4,194.4,200,187.5,200L187.5,200z M23.04,97.07l-9.4,13.75c-0.33,0.49-0.21,1.16,0.28,1.49c0.18,0.12,0.39,0.19,0.61,0.19
	h9.39c0.59,0,1.07-0.48,1.07-1.07c0,0,0,0,0,0V97.67c0-0.59-0.48-1.07-1.07-1.07C23.57,96.6,23.24,96.78,23.04,97.07z M137.5,23.93
	c0,7.5,6.08,13.57,13.57,13.57c0.59,0,1.07-0.48,1.07-1.07c0-0.29-0.11-0.56-0.32-0.76l-12.5-12.5c-0.42-0.42-1.1-0.42-1.52,0
	C137.61,23.37,137.5,23.64,137.5,23.93z M161.43,50h-22.85c-7.5,0-13.57-6.08-13.57-13.57c0,0,0,0,0,0V13.57
	c0-0.59-0.48-1.07-1.07-1.07H51.07c-7.5,0-13.57,6.08-13.57,13.57l0,0v85.36c0,0.59,0.48,1.07,1.07,1.07c0,0,0,0,0,0h22.87
	c0.58,0,1.05,0.46,1.07,1.04c0.58,20.7,17.83,37.02,38.53,36.44c19.89-0.56,35.88-16.55,36.44-36.44c0.02-0.58,0.49-1.04,1.07-1.04
	h22.87c0.59,0,1.07-0.48,1.07-1.07c0,0,0,0,0,0V51.07C162.5,50.48,162.02,50,161.43,50L161.43,50z M175,102.59v8.84
	c0,0.59,0.48,1.07,1.07,1.07c0,0,0,0,0,0h8.84c0.59,0,1.07-0.48,1.07-1.07c0-0.29-0.11-0.56-0.32-0.76l-8.84-8.84
	c-0.42-0.42-1.1-0.42-1.52,0C175.11,102.03,175,102.3,175,102.59L175,102.59z M63.57,75h72.86c0.59,0,1.07,0.48,1.07,1.07
	c0,0,0,0,0,0v10.35c0,0.59-0.48,1.07-1.07,1.07c0,0,0,0,0,0H63.57c-0.59,0-1.07-0.48-1.07-1.07c0,0,0,0,0,0V76.07
	C62.5,75.48,62.98,75,63.57,75L63.57,75z M63.57,50h47.85c0.59,0,1.07,0.48,1.07,1.07c0,0,0,0,0,0v10.35c0,0.59-0.48,1.07-1.07,1.07
	c0,0,0,0,0,0H63.57c-0.59,0-1.07-0.48-1.07-1.07V51.07C62.5,50.48,62.98,50,63.57,50C63.57,50,63.57,50,63.57,50L63.57,50z"/>
</svg>
