<?xml version="1.0" encoding="utf-8"?>
<!-- Generator: Adobe Illustrator 23.0.0, SVG Export Plug-In . SVG Version: 6.00 Build 0)  -->
<!DOCTYPE svg PUBLIC "-//W3C//DTD SVG 1.1//EN" "http://www.w3.org/Graphics/SVG/1.1/DTD/svg11.dtd" [
	<!ENTITY ns_extend "http://ns.adobe.com/Extensibility/1.0/">
	<!ENTITY ns_ai "http://ns.adobe.com/AdobeIllustrator/10.0/">
	<!ENTITY ns_graphs "http://ns.adobe.com/Graphs/1.0/">
	<!ENTITY ns_vars "http://ns.adobe.com/Variables/1.0/">
	<!ENTITY ns_imrep "http://ns.adobe.com/ImageReplacement/1.0/">
	<!ENTITY ns_sfw "http://ns.adobe.com/SaveForWeb/1.0/">
	<!ENTITY ns_custom "http://ns.adobe.com/GenericCustomNamespace/1.0/">
	<!ENTITY ns_adobe_xpath "http://ns.adobe.com/XPath/1.0/">
	<!ENTITY st0 "fill:#DCBDA0;">
]>
<svg version="1.1" id="图层_1" xmlns:x="&ns_extend;" xmlns:i="&ns_ai;" xmlns:graph="&ns_graphs;"
	 xmlns="http://www.w3.org/2000/svg" xmlns:xlink="http://www.w3.org/1999/xlink" x="0px" y="0px" viewBox="0 0 200 200"
	 style="enable-background:new 0 0 200 200;" xml:space="preserve">
<metadata>
	<sfw  xmlns="&ns_sfw;">
		<slices></slices>
		<sliceSourceBounds  bottomLeftOrigin="true" height="133.34" width="133.33" x="33.33" y="37.5"></sliceSourceBounds>
	</sfw>
</metadata>
<path style="&st0;" d="M66.67,70.83l6.61,23.13c1.02,3.58,4.29,6.04,8.01,6.04h37.42c3.72,0,6.99-2.47,8.01-6.04l6.61-23.13H150
	c9.2,0,16.67,7.46,16.67,16.67v58.33c0,9.2-7.46,16.67-16.67,16.67H50c-9.2,0-16.67-7.46-16.67-16.67V87.5
	c0-9.2,7.46-16.67,16.67-16.67l0,0H66.67z M103.93,43.39v43.9c0,2.3-1.87,4.17-4.17,4.16c-2.3,0-4.16-1.86-4.16-4.16v-43.9
	L82.11,56.87c-1.63,1.63-4.27,1.63-5.89,0c-1.63-1.63-1.63-4.27,0-5.89l20.59-20.59c1.62-1.63,4.25-1.64,5.87-0.02
	c0.01,0.01,0.01,0.01,0.02,0.02l20.59,20.59c1.63,1.63,1.63,4.27,0,5.89c-1.63,1.63-4.27,1.63-5.89,0
	C117.4,56.87,103.93,43.39,103.93,43.39z M73.3,120.83c-2.3,0-4.17,1.87-4.17,4.17c0,2.3,1.87,4.17,4.17,4.17h53.89
	c2.3,0,4.17-1.87,4.17-4.17c0-2.3-1.87-4.17-4.17-4.17H73.3z"/>
</svg>
