<?xml version="1.0" encoding="utf-8"?>
<!-- Generator: Adobe Illustrator 23.0.0, SVG Export Plug-In . SVG Version: 6.00 Build 0)  -->
<!DOCTYPE svg PUBLIC "-//W3C//DTD SVG 1.1//EN" "http://www.w3.org/Graphics/SVG/1.1/DTD/svg11.dtd" [
	<!ENTITY ns_extend "http://ns.adobe.com/Extensibility/1.0/">
	<!ENTITY ns_ai "http://ns.adobe.com/AdobeIllustrator/10.0/">
	<!ENTITY ns_graphs "http://ns.adobe.com/Graphs/1.0/">
	<!ENTITY ns_vars "http://ns.adobe.com/Variables/1.0/">
	<!ENTITY ns_imrep "http://ns.adobe.com/ImageReplacement/1.0/">
	<!ENTITY ns_sfw "http://ns.adobe.com/SaveForWeb/1.0/">
	<!ENTITY ns_custom "http://ns.adobe.com/GenericCustomNamespace/1.0/">
	<!ENTITY ns_adobe_xpath "http://ns.adobe.com/XPath/1.0/">
	<!ENTITY st0 "fill:#D2872E;">
	<!ENTITY st1 "fill:#FFFFFF;">
]>
<svg version="1.1" id="图层_1" xmlns:x="&ns_extend;" xmlns:i="&ns_ai;" xmlns:graph="&ns_graphs;"
	 xmlns="http://www.w3.org/2000/svg" xmlns:xlink="http://www.w3.org/1999/xlink" x="0px" y="0px" viewBox="0 0 36 36"
	 style="enable-background:new 0 0 36 36;" xml:space="preserve">
<metadata>
	<sfw  xmlns="&ns_sfw;">
		<slices></slices>
		<sliceSourceBounds  bottomLeftOrigin="true" height="32" width="32" x="2" y="2"></sliceSourceBounds>
	</sfw>
</metadata>
<g>
	<circle style="&st0;" cx="18" cy="18" r="16"/>
</g>
<path style="&st1;" d="M13.99,27.17c-0.81,0.51-1.88,0.24-2.37-0.58c-0.23-0.39-0.31-0.86-0.2-1.3l1.05-4.49
	c0.03-0.11-0.01-0.22-0.09-0.29l-3.45-3c-0.72-0.62-0.8-1.71-0.19-2.44c0.29-0.35,0.72-0.57,1.17-0.61l4.52-0.37
	c0.1-0.01,0.19-0.07,0.23-0.17l1.74-4.26c0.36-0.89,1.37-1.31,2.25-0.94c0.42,0.18,0.75,0.52,0.93,0.94l1.74,4.26
	c0.04,0.1,0.13,0.16,0.23,0.17l4.52,0.37c0.95,0.08,1.65,0.92,1.58,1.87c-0.04,0.45-0.25,0.88-0.59,1.18l-3.45,3
	c-0.08,0.07-0.12,0.18-0.09,0.29l1.05,4.49c0.22,0.93-0.35,1.87-1.27,2.09c-0.44,0.11-0.91,0.03-1.3-0.21l-3.87-2.41
	c-0.08-0.05-0.19-0.05-0.27,0L13.99,27.17L13.99,27.17z"/>
</svg>
