<?xml version="1.0" encoding="utf-8"?>
<!-- Generator: Adobe Illustrator 23.0.0, SVG Export Plug-In . SVG Version: 6.00 Build 0)  -->
<!DOCTYPE svg PUBLIC "-//W3C//DTD SVG 1.1//EN" "http://www.w3.org/Graphics/SVG/1.1/DTD/svg11.dtd" [
	<!ENTITY ns_extend "http://ns.adobe.com/Extensibility/1.0/">
	<!ENTITY ns_ai "http://ns.adobe.com/AdobeIllustrator/10.0/">
	<!ENTITY ns_graphs "http://ns.adobe.com/Graphs/1.0/">
	<!ENTITY ns_vars "http://ns.adobe.com/Variables/1.0/">
	<!ENTITY ns_imrep "http://ns.adobe.com/ImageReplacement/1.0/">
	<!ENTITY ns_sfw "http://ns.adobe.com/SaveForWeb/1.0/">
	<!ENTITY ns_custom "http://ns.adobe.com/GenericCustomNamespace/1.0/">
	<!ENTITY ns_adobe_xpath "http://ns.adobe.com/XPath/1.0/">
]>
<svg version="1.1" id="图层_1" xmlns:x="&ns_extend;" xmlns:i="&ns_ai;" xmlns:graph="&ns_graphs;"
	 xmlns="http://www.w3.org/2000/svg" xmlns:xlink="http://www.w3.org/1999/xlink" x="0px" y="0px" viewBox="0 0 92.4 96.5"
	 style="enable-background:new 0 0 92.4 96.5;" xml:space="preserve">
<style type="text/css">
	.st0{enable-background:new    ;}
	.st1{fill:#FFF7EC;}
	.st2{fill:none;stroke:#000000;stroke-miterlimit:10;}
	.st3{fill:#FFE8C9;}
	.st4{fill:#DEC39E;}
</style>
<metadata>
	<sfw  xmlns="&ns_sfw;">
		<slices></slices>
		<sliceSourceBounds  bottomLeftOrigin="true" height="92" width="88" x="31" y="26.5"></sliceSourceBounds>
	</sfw>
</metadata>
<g id="圆角矩形_6_1_" class="st0">
	<g id="圆角矩形_6">
		<g>
			<path class="st1" d="M63.6,2.8H7.7c-2.8,0-5,2.2-5,5v68.5c0,2.8,2.2,5,5,5h55.9c2.8,0,5-2.2,5-5V7.8C68.6,5.1,66.4,2.8,63.6,2.8z
				"/>
		</g>
		<g>
			<path class="st2" d="M63.6,2.8H7.7c-2.8,0-5,2.2-5,5v68.5c0,2.8,2.2,5,5,5h55.9c2.8,0,5-2.2,5-5V7.8C68.6,5.1,66.4,2.8,63.6,2.8z
				"/>
		</g>
	</g>
</g>
<g id="形状_156_1_" class="st0">
	<g id="形状_156_2_">
		<g>
			<path d="M36.4,22.3c1.4,0,14.1,0.3,14.1,12.6c0,4-0.7,6.8-4.5,9.5c-0.2,0.2-0.4,0.3-0.6,0.4c-2,1.4-3.2,2.4-3.6,5.3h-7.4
				c0.1-3.7,0.7-4.8,3.4-6.7c2.3-1.6,4.4-3.1,4.4-6.5c0-4.8-2.1-7.2-6.4-7.2c-3.5,0-5.7,2-6.6,4.3h-6.9
				C23.6,26.4,31.9,22.3,36.4,22.3 M41.8,57.9v3.9h-7.3v-3.9H41.8 M36.4,20.3c-6.2,0-16.3,6-16.3,15.8h10.7V36
				c0.2-2.1,1.8-4.2,5-4.2c2.4,0,4.4,0.8,4.4,5.2c0,2.3-1.3,3.3-3.5,4.8c-4,2.8-4.3,4.9-4.3,10.3h11.3c0-4.1,1-4.4,3.5-6.1
				c4.4-3.1,5.4-6.6,5.4-11.1C52.4,23.9,43.2,20.3,36.4,20.3L36.4,20.3z M43.8,55.9H32.5v7.9h11.3V55.9L43.8,55.9z"/>
		</g>
	</g>
</g>
<g id="圆角矩形_6_拷贝_1_" class="st0">
	<g id="圆角矩形_6_拷贝">
		<g>
			<path class="st3" d="M84.7,37.7h-31c-2.8,0-5,2.2-5,5v46.1c0,2.8,2.2,5,5,5h31c2.8,0,5-2.2,5-5V42.7C89.7,40,87.5,37.7,84.7,37.7
				z"/>
		</g>
		<g>
			<path class="st2" d="M84.7,37.7h-31c-2.8,0-5,2.2-5,5v46.1c0,2.8,2.2,5,5,5h31c2.8,0,5-2.2,5-5V42.7C89.7,40,87.5,37.7,84.7,37.7
				z"/>
		</g>
	</g>
</g>
<g id="矩形_634_1_" class="st0">
	<g id="矩形_634_2_">
		<g>
			<rect x="56.2" y="50.2" class="st4" width="27.3" height="5"/>
		</g>
	</g>
</g>
<g id="矩形_634_拷贝_2_1_" class="st0">
	<g id="矩形_634_拷贝_2">
		<g>
			<rect x="56.2" y="78.9" class="st4" width="27.3" height="5"/>
		</g>
	</g>
</g>
<g id="矩形_634_拷贝_1_" class="st0">
	<g id="矩形_634_拷贝_2_">
		<g>
			<rect x="56.2" y="61.4" class="st4" width="13.7" height="4.9"/>
		</g>
	</g>
</g>
</svg>
