<?xml version="1.0" encoding="utf-8"?>
<!-- Generator: Adobe Illustrator 23.0.0, SVG Export Plug-In . SVG Version: 6.00 Build 0)  -->
<!DOCTYPE svg PUBLIC "-//W3C//DTD SVG 1.1//EN" "http://www.w3.org/Graphics/SVG/1.1/DTD/svg11.dtd" [
	<!ENTITY ns_extend "http://ns.adobe.com/Extensibility/1.0/">
	<!ENTITY ns_ai "http://ns.adobe.com/AdobeIllustrator/10.0/">
	<!ENTITY ns_graphs "http://ns.adobe.com/Graphs/1.0/">
	<!ENTITY ns_vars "http://ns.adobe.com/Variables/1.0/">
	<!ENTITY ns_imrep "http://ns.adobe.com/ImageReplacement/1.0/">
	<!ENTITY ns_sfw "http://ns.adobe.com/SaveForWeb/1.0/">
	<!ENTITY ns_custom "http://ns.adobe.com/GenericCustomNamespace/1.0/">
	<!ENTITY ns_adobe_xpath "http://ns.adobe.com/XPath/1.0/">
	<!ENTITY st0 "fill:#42392B;">
]>
<svg version="1.1" id="图层_1" xmlns:x="&ns_extend;" xmlns:i="&ns_ai;" xmlns:graph="&ns_graphs;"
	 xmlns="http://www.w3.org/2000/svg" xmlns:xlink="http://www.w3.org/1999/xlink" x="0px" y="0px" viewBox="0 0 200.2 200"
	 style="enable-background:new 0 0 200.2 200;" xml:space="preserve">
<metadata>
	<sfw  xmlns="&ns_sfw;">
		<slices></slices>
		<sliceSourceBounds  bottomLeftOrigin="true" height="165.01" width="200" x="0.02" y="17.49"></sliceSourceBounds>
	</sfw>
</metadata>
<path style="&st0;" d="M195.64,90.51l-64.89-64.93c-4.04-4.03-8.86-5.23-13.85-3.36c-5.11,1.92-8.04,6.5-8.05,12.57v29.33h-12.7
	L59.7,64.14c-7.65,0.03-12.99,5.34-13.01,12.94c-0.03,15.31-0.03,30.61,0,45.91c0.02,7.36,5.42,12.75,12.85,12.83l49.31,0.01
	l-0.01,5.68c-0.03,7.96-0.05,15.9,0.11,23.85c0.05,3.11,1.28,6.5,3.17,8.83c2.32,2.86,5.51,4.44,8.98,4.44l0,0
	c3.43,0,6.88-1.56,9.71-4.39c21.65-21.62,43.28-43.26,64.9-64.91C201.49,103.55,201.46,96.34,195.64,90.51z"/>
<path style="&st0;" d="M75.72,157.36h-0.01l-14.17,0.02l-20.29-0.01c-10.25,0-16.14-5.89-16.14-16.15l0-82.54
	c0-10.24,5.89-16.11,16.16-16.11l13.44-0.01l14.76,0.01l8.21-0.01c5.87,0,9.09-2.95,9.55-8.75c0.18-2.16,0.13-4.36,0.05-6.81
	c-0.15-6.11-3.58-9.49-9.61-9.5H62.76c-7.99,0-15.98,0-23.95,0.05c-2.45,0.01-4.96,0.29-7.48,0.82
	C13.32,22.21,0.17,38.36,0.07,56.77C0.02,66.7,0.04,76.64,0.05,86.55l0.01,13.21l-0.03,13.86c-0.01,9.96-0.04,19.91,0.05,29.89
	c0.18,21.05,17.34,38.49,38.26,38.88c5.15,0.1,10.31,0.13,15.46,0.13l24.49-0.05c4.84,0,8.22-2.94,8.82-7.66
	c0.21-1.72,0.24-3.49,0.25-5.25v-0.88c0.02-2.6,0.05-6.16-2.45-8.69C82.51,157.57,79.04,157.36,75.72,157.36z"/>
</svg>
