<?xml version="1.0" encoding="utf-8"?>
<!-- Generator: Adobe Illustrator 23.0.0, SVG Export Plug-In . SVG Version: 6.00 Build 0)  -->
<!DOCTYPE svg PUBLIC "-//W3C//DTD SVG 1.1//EN" "http://www.w3.org/Graphics/SVG/1.1/DTD/svg11.dtd" [
	<!ENTITY ns_extend "http://ns.adobe.com/Extensibility/1.0/">
	<!ENTITY ns_ai "http://ns.adobe.com/AdobeIllustrator/10.0/">
	<!ENTITY ns_graphs "http://ns.adobe.com/Graphs/1.0/">
	<!ENTITY ns_vars "http://ns.adobe.com/Variables/1.0/">
	<!ENTITY ns_imrep "http://ns.adobe.com/ImageReplacement/1.0/">
	<!ENTITY ns_sfw "http://ns.adobe.com/SaveForWeb/1.0/">
	<!ENTITY ns_custom "http://ns.adobe.com/GenericCustomNamespace/1.0/">
	<!ENTITY ns_adobe_xpath "http://ns.adobe.com/XPath/1.0/">
	<!ENTITY st0 "fill:#42392B;">
]>
<svg version="1.1" id="图层_1" xmlns:x="&ns_extend;" xmlns:i="&ns_ai;" xmlns:graph="&ns_graphs;"
	 xmlns="http://www.w3.org/2000/svg" xmlns:xlink="http://www.w3.org/1999/xlink" x="0px" y="0px" viewBox="0 0 200.2 200"
	 style="enable-background:new 0 0 200.2 200;" xml:space="preserve">
<metadata>
	<sfw  xmlns="&ns_sfw;">
		<slices></slices>
		<sliceSourceBounds  bottomLeftOrigin="true" height="162.5" width="166.66" x="16.77" y="18.75"></sliceSourceBounds>
	</sfw>
</metadata>
<path style="&st0;" d="M65.53,179.03c-7.01,4.36-16.19,2.1-20.45-4.99c-2.02-3.37-2.65-7.39-1.75-11.22l9.08-38.72
	c0.22-0.92-0.08-1.88-0.79-2.51l-29.72-25.9c-6.17-5.38-6.89-14.78-1.61-21.04c2.54-3.02,6.17-4.9,10.1-5.22l39-3.18
	c0.85-0.07,1.61-0.63,1.96-1.48l15.03-36.75c3.13-7.66,11.84-11.31,19.44-8.1c3.62,1.54,6.49,4.45,7.97,8.1l15.03,36.75
	c0.35,0.85,1.11,1.42,1.96,1.49l39.01,3.18c8.18,0.67,14.24,7.9,13.59,16.12c-0.3,3.92-2.13,7.56-5.09,10.15l-29.72,25.9
	c-0.69,0.6-1,1.58-0.79,2.51l9.08,38.72c1.88,8.01-3,16.08-10.96,18.01c-3.84,0.93-7.88,0.28-11.24-1.8l-33.39-20.75
	c-0.72-0.45-1.63-0.45-2.35,0L65.53,179.03L65.53,179.03z"/>
</svg>
