<?xml version="1.0" encoding="utf-8"?>
<!-- Generator: Adobe Illustrator 23.0.0, SVG Export Plug-In . SVG Version: 6.00 Build 0)  -->
<!DOCTYPE svg PUBLIC "-//W3C//DTD SVG 1.1//EN" "http://www.w3.org/Graphics/SVG/1.1/DTD/svg11.dtd" [
	<!ENTITY ns_extend "http://ns.adobe.com/Extensibility/1.0/">
	<!ENTITY ns_ai "http://ns.adobe.com/AdobeIllustrator/10.0/">
	<!ENTITY ns_graphs "http://ns.adobe.com/Graphs/1.0/">
	<!ENTITY ns_vars "http://ns.adobe.com/Variables/1.0/">
	<!ENTITY ns_imrep "http://ns.adobe.com/ImageReplacement/1.0/">
	<!ENTITY ns_sfw "http://ns.adobe.com/SaveForWeb/1.0/">
	<!ENTITY ns_custom "http://ns.adobe.com/GenericCustomNamespace/1.0/">
	<!ENTITY ns_adobe_xpath "http://ns.adobe.com/XPath/1.0/">
	<!ENTITY st0 "fill:#42392B;">
	<!ENTITY st1 "fill:#FFFFFF;">
]>
<svg version="1.1" id="图层_1" xmlns:x="&ns_extend;" xmlns:i="&ns_ai;" xmlns:graph="&ns_graphs;"
	 xmlns="http://www.w3.org/2000/svg" xmlns:xlink="http://www.w3.org/1999/xlink" x="0px" y="0px" viewBox="0 0 36 36"
	 style="enable-background:new 0 0 36 36;" xml:space="preserve">
<metadata>
	<sfw  xmlns="&ns_sfw;">
		<slices></slices>
		<sliceSourceBounds  bottomLeftOrigin="true" height="32" width="32" x="2" y="2"></sliceSourceBounds>
	</sfw>
</metadata>
<g>
	<circle style="&st0;" cx="18" cy="18" r="16"/>
</g>
<path style="&st1;" d="M18,9c4.97,0,9,4.03,9,9s-4.03,9-9,9s-9-4.03-9-9S13.03,9,18,9z M20.65,21.75h-5.33
	c0.21,1.2,0.5,2.38,0.89,3.53c0.58,0.14,1.18,0.22,1.8,0.22c0.6,0,1.19-0.07,1.75-0.2C19.97,24.62,20.27,23.44,20.65,21.75z
	 M24.5,21.75h-2.33c-0.15,0.97-0.37,1.93-0.64,2.87C22.77,23.96,23.79,22.96,24.5,21.75z M13.79,21.75H11.5
	c0.69,1.2,1.7,2.18,2.92,2.84C14.15,23.66,13.94,22.71,13.79,21.75L13.79,21.75z M13.62,15.75h-2.77c-0.23,0.73-0.34,1.49-0.34,2.25
	c0,0.78,0.12,1.54,0.34,2.25h2.76C13.46,18.75,13.47,17.25,13.62,15.75L13.62,15.75z M20.83,15.75h-5.71c-0.16,1.5-0.17,3-0.02,4.5
	h5.74C21,18.75,20.99,17.25,20.83,15.75z M25.16,15.75h-2.82c0.15,1.5,0.16,3,0.02,4.5h2.8c0.23-0.73,0.34-1.49,0.34-2.25
	C25.5,17.22,25.38,16.46,25.16,15.75L25.16,15.75z M14.44,11.39c-1.17,0.66-2.26,1.69-2.94,2.85h2.31
	C13.97,13.3,14.18,12.37,14.44,11.39z M18,10.5c-0.61,0-1.21,0.07-1.78,0.21c-0.38,1.16-0.67,2.34-0.88,3.54h5.29
	c-0.21-1.2-0.51-2.39-0.89-3.55C19.17,10.57,18.59,10.5,18,10.5z M21.51,11.37c0.25,0.91,0.49,1.98,0.64,2.88h2.35
	C23.79,13.03,22.75,12.03,21.51,11.37z"/>
</svg>
