<?xml version="1.0" encoding="utf-8"?>
<!-- Generator: Adobe Illustrator 23.0.0, SVG Export Plug-In . SVG Version: 6.00 Build 0)  -->
<!DOCTYPE svg PUBLIC "-//W3C//DTD SVG 1.1//EN" "http://www.w3.org/Graphics/SVG/1.1/DTD/svg11.dtd" [
	<!ENTITY ns_extend "http://ns.adobe.com/Extensibility/1.0/">
	<!ENTITY ns_ai "http://ns.adobe.com/AdobeIllustrator/10.0/">
	<!ENTITY ns_graphs "http://ns.adobe.com/Graphs/1.0/">
	<!ENTITY ns_vars "http://ns.adobe.com/Variables/1.0/">
	<!ENTITY ns_imrep "http://ns.adobe.com/ImageReplacement/1.0/">
	<!ENTITY ns_sfw "http://ns.adobe.com/SaveForWeb/1.0/">
	<!ENTITY ns_custom "http://ns.adobe.com/GenericCustomNamespace/1.0/">
	<!ENTITY ns_adobe_xpath "http://ns.adobe.com/XPath/1.0/">
]>
<svg version="1.1" id="图层_1" xmlns:x="&ns_extend;" xmlns:i="&ns_ai;" xmlns:graph="&ns_graphs;"
	 xmlns="http://www.w3.org/2000/svg" xmlns:xlink="http://www.w3.org/1999/xlink" x="0px" y="0px" viewBox="0 0 56.7 67.4"
	 style="enable-background:new 0 0 56.7 67.4;" xml:space="preserve">
<style type="text/css">
	.st0{enable-background:new    ;}
	.st1{fill:#FFF7EC;}
	.st2{fill:none;stroke:#000000;stroke-miterlimit:10;}
	.st3{fill:#FFE1B4;}
</style>
<metadata>
	<sfw  xmlns="&ns_sfw;">
		<slices></slices>
		<sliceSourceBounds  bottomLeftOrigin="true" height="64" width="53" x="46" y="42"></sliceSourceBounds>
	</sfw>
</metadata>
<g id="圆角矩形_6_1_" class="st0">
	<g id="圆角矩形_6">
		<g>
			<path class="st1" d="M49.4,2.1h-42c-2.8,0-5,2.2-5,5v53c0,2.8,2.2,5,5,5h42c2.8,0,5-2.2,5-5v-53C54.4,4.3,52.2,2.1,49.4,2.1z"/>
		</g>
		<g>
			<path class="st2" d="M49.4,2.1h-42c-2.8,0-5,2.2-5,5v53c0,2.8,2.2,5,5,5h42c2.8,0,5-2.2,5-5v-53C54.4,4.3,52.2,2.1,49.4,2.1z"/>
		</g>
	</g>
</g>
<g id="椭圆_641_1_" class="st0">
	<g id="椭圆_641_3_">
		<g>
			<path class="st3" d="M28.4,19.1c-7.2,0-13,5.8-13,13s5.8,13,13,13s13-5.8,13-13S35.6,19.1,28.4,19.1z"/>
		</g>
		<g>
			<path class="st2" d="M28.4,19.1c-7.2,0-13,5.8-13,13s5.8,13,13,13s13-5.8,13-13S35.6,19.1,28.4,19.1z"/>
		</g>
	</g>
</g>
<g id="椭圆_641_拷贝_1_" class="st0">
	<g id="椭圆_641_拷贝">
		<g>
			<path class="st3" d="M28.4,40.1c-2.8,0-5,2.2-5,5s2.2,5,5,5s5-2.2,5-5S31.2,40.1,28.4,40.1z"/>
		</g>
		<g>
			<path class="st2" d="M28.4,40.1c-2.8,0-5,2.2-5,5s2.2,5,5,5s5-2.2,5-5S31.2,40.1,28.4,40.1z"/>
		</g>
	</g>
</g>
</svg>
