<?xml version="1.0" encoding="utf-8"?>
<!-- Generator: Adobe Illustrator 23.0.0, SVG Export Plug-In . SVG Version: 6.00 Build 0)  -->
<!DOCTYPE svg PUBLIC "-//W3C//DTD SVG 1.1//EN" "http://www.w3.org/Graphics/SVG/1.1/DTD/svg11.dtd" [
	<!ENTITY ns_extend "http://ns.adobe.com/Extensibility/1.0/">
	<!ENTITY ns_ai "http://ns.adobe.com/AdobeIllustrator/10.0/">
	<!ENTITY ns_graphs "http://ns.adobe.com/Graphs/1.0/">
	<!ENTITY ns_vars "http://ns.adobe.com/Variables/1.0/">
	<!ENTITY ns_imrep "http://ns.adobe.com/ImageReplacement/1.0/">
	<!ENTITY ns_sfw "http://ns.adobe.com/SaveForWeb/1.0/">
	<!ENTITY ns_custom "http://ns.adobe.com/GenericCustomNamespace/1.0/">
	<!ENTITY ns_adobe_xpath "http://ns.adobe.com/XPath/1.0/">
	<!ENTITY st0 "fill:#42392B;">
	<!ENTITY st1 "fill:#FFFFFF;">
]>
<svg version="1.1" id="图层_1" xmlns:x="&ns_extend;" xmlns:i="&ns_ai;" xmlns:graph="&ns_graphs;"
	 xmlns="http://www.w3.org/2000/svg" xmlns:xlink="http://www.w3.org/1999/xlink" x="0px" y="0px" viewBox="0 0 36 36"
	 style="enable-background:new 0 0 36 36;" xml:space="preserve">
<metadata>
	<sfw  xmlns="&ns_sfw;">
		<slices></slices>
		<sliceSourceBounds  bottomLeftOrigin="true" height="32" width="32" x="2" y="2"></sliceSourceBounds>
	</sfw>
</metadata>
<g>
	<circle style="&st0;" cx="18" cy="18" r="16"/>
</g>
<path style="&st1;" d="M27.91,11.9c-0.72,0.31-1.51,0.54-2.33,0.63c0.84-0.5,1.48-1.29,1.78-2.23c-0.77,0.46-1.65,0.8-2.56,0.98
	C24.06,10.49,23.01,10,21.85,10c-2.24,0-4.04,1.81-4.04,4.04c0,0.31,0.04,0.63,0.1,0.93c-3.35-0.18-6.34-1.78-8.33-4.23
	c-0.35,0.6-0.55,1.29-0.55,2.04c0,1.4,0.71,2.64,1.8,3.37c-0.66-0.03-1.29-0.21-1.83-0.51v0.05c0,1.96,1.39,3.59,3.24,3.97
	c-0.34,0.09-0.7,0.14-1.06,0.14c-0.26,0-0.51-0.03-0.76-0.06c0.51,1.6,2,2.76,3.78,2.8c-1.39,1.09-3.13,1.73-5.02,1.73
	c-0.34,0-0.65-0.01-0.98-0.05c1.79,1.15,3.92,1.81,6.2,1.81c7.43,0,11.5-6.16,11.5-11.5c0-0.18,0-0.35-0.01-0.53
	C26.67,13.42,27.36,12.7,27.91,11.9z"/>
</svg>
