<?xml version="1.0" encoding="utf-8"?>
<!-- Generator: Adobe Illustrator 23.0.0, SVG Export Plug-In . SVG Version: 6.00 Build 0)  -->
<!DOCTYPE svg PUBLIC "-//W3C//DTD SVG 1.1//EN" "http://www.w3.org/Graphics/SVG/1.1/DTD/svg11.dtd" [
	<!ENTITY ns_extend "http://ns.adobe.com/Extensibility/1.0/">
	<!ENTITY ns_ai "http://ns.adobe.com/AdobeIllustrator/10.0/">
	<!ENTITY ns_graphs "http://ns.adobe.com/Graphs/1.0/">
	<!ENTITY ns_vars "http://ns.adobe.com/Variables/1.0/">
	<!ENTITY ns_imrep "http://ns.adobe.com/ImageReplacement/1.0/">
	<!ENTITY ns_sfw "http://ns.adobe.com/SaveForWeb/1.0/">
	<!ENTITY ns_custom "http://ns.adobe.com/GenericCustomNamespace/1.0/">
	<!ENTITY ns_adobe_xpath "http://ns.adobe.com/XPath/1.0/">
]>
<svg version="1.1" id="图层_1" xmlns:x="&ns_extend;" xmlns:i="&ns_ai;" xmlns:graph="&ns_graphs;"
	 xmlns="http://www.w3.org/2000/svg" xmlns:xlink="http://www.w3.org/1999/xlink" x="0px" y="0px" viewBox="0 0 36 36"
	 style="enable-background:new 0 0 36 36;" xml:space="preserve">
<style type="text/css">
	.st0{fill:#42392B;}
	.st1{fill:#FFE1B4;}
</style>
<metadata>
	<sfw  xmlns="&ns_sfw;">
		<slices></slices>
		<sliceSourceBounds  bottomLeftOrigin="true" height="32" width="32" x="2" y="2"></sliceSourceBounds>
	</sfw>
</metadata>
<g>
	<circle class="st0" cx="18" cy="18" r="16"/>
</g>
<path class="st1" d="M27.9,11.9c-0.7,0.3-1.5,0.5-2.3,0.6c0.8-0.5,1.5-1.3,1.8-2.2c-0.8,0.5-1.6,0.8-2.6,1c-0.7-0.8-1.8-1.3-3-1.3
	c-2.2,0-4,1.8-4,4c0,0.3,0,0.6,0.1,0.9c-3.4-0.2-6.3-1.8-8.3-4.2C9.2,11.3,9,12,9,12.8c0,1.4,0.7,2.6,1.8,3.4
	c-0.7,0-1.3-0.2-1.8-0.5v0.1c0,2,1.4,3.6,3.2,4c-0.3,0.1-0.7,0.1-1.1,0.1c-0.3,0-0.5,0-0.8-0.1c0.5,1.6,2,2.8,3.8,2.8
	c-1.4,1.1-3.1,1.7-5,1.7c-0.3,0-0.6,0-1,0c1.8,1.1,3.9,1.8,6.2,1.8c7.4,0,11.5-6.2,11.5-11.5c0-0.2,0-0.4,0-0.5
	C26.7,13.4,27.4,12.7,27.9,11.9z"/>
</svg>
