<?xml version="1.0" encoding="utf-8"?>
<!-- Generator: Adobe Illustrator 23.0.0, SVG Export Plug-In . SVG Version: 6.00 Build 0)  -->
<!DOCTYPE svg PUBLIC "-//W3C//DTD SVG 1.1//EN" "http://www.w3.org/Graphics/SVG/1.1/DTD/svg11.dtd" [
	<!ENTITY ns_extend "http://ns.adobe.com/Extensibility/1.0/">
	<!ENTITY ns_ai "http://ns.adobe.com/AdobeIllustrator/10.0/">
	<!ENTITY ns_graphs "http://ns.adobe.com/Graphs/1.0/">
	<!ENTITY ns_vars "http://ns.adobe.com/Variables/1.0/">
	<!ENTITY ns_imrep "http://ns.adobe.com/ImageReplacement/1.0/">
	<!ENTITY ns_sfw "http://ns.adobe.com/SaveForWeb/1.0/">
	<!ENTITY ns_custom "http://ns.adobe.com/GenericCustomNamespace/1.0/">
	<!ENTITY ns_adobe_xpath "http://ns.adobe.com/XPath/1.0/">
]>
<svg version="1.1" id="图层_1" xmlns:x="&ns_extend;" xmlns:i="&ns_ai;" xmlns:graph="&ns_graphs;"
	 xmlns="http://www.w3.org/2000/svg" xmlns:xlink="http://www.w3.org/1999/xlink" x="0px" y="0px" viewBox="0 0 36 36"
	 style="enable-background:new 0 0 36 36;" xml:space="preserve">
<style type="text/css">
	.st0{fill:#42392B;}
	.st1{fill:#FFE1B4;}
</style>
<metadata>
	<sfw  xmlns="&ns_sfw;">
		<slices></slices>
		<sliceSourceBounds  bottomLeftOrigin="true" height="32" width="32" x="2" y="2"></sliceSourceBounds>
	</sfw>
</metadata>
<g>
	<circle class="st0" cx="18" cy="18" r="16"/>
</g>
<path class="st1" d="M17.9,10.8c-4.3,0-7.3,1.8-7.3,1.8c1.6-1.5,4.5-2.3,4.5-2.3L14.9,10c-2.7,0.1-5.1,1.9-5.1,1.9
	C7,17.6,7.2,22.6,7.2,22.6c2.2,2.9,5.6,2.7,5.6,2.7l1.1-1.4c-2-0.4-3.3-2.2-3.3-2.2s3,2,7.3,2s7.3-2,7.3-2S24,23.4,22,23.8l1.1,1.4
	c0,0,3.3,0.2,5.6-2.7c0,0,0.2-4.9-2.6-10.7c0,0-2.4-1.9-5.1-1.9l-0.3,0.3c0,0,2.9,0.8,4.5,2.3C25.2,12.6,22.2,10.8,17.9,10.8
	 M14.6,16.8c1,0,1.9,0.9,1.9,2c0,1.1-0.8,2-1.9,2c-1,0-1.9-0.9-1.9-2C12.8,17.7,13.6,16.8,14.6,16.8 M21.3,16.8c1,0,1.9,0.9,1.9,2
	c0,1.1-0.8,2-1.9,2c-1,0-1.9-0.9-1.9-2C19.4,17.7,20.2,16.8,21.3,16.8z"/>
</svg>
