<?xml version="1.0" encoding="utf-8"?>
<!-- Generator: Adobe Illustrator 23.0.0, SVG Export Plug-In . SVG Version: 6.00 Build 0)  -->
<!DOCTYPE svg PUBLIC "-//W3C//DTD SVG 1.1//EN" "http://www.w3.org/Graphics/SVG/1.1/DTD/svg11.dtd" [
	<!ENTITY ns_extend "http://ns.adobe.com/Extensibility/1.0/">
	<!ENTITY ns_ai "http://ns.adobe.com/AdobeIllustrator/10.0/">
	<!ENTITY ns_graphs "http://ns.adobe.com/Graphs/1.0/">
	<!ENTITY ns_vars "http://ns.adobe.com/Variables/1.0/">
	<!ENTITY ns_imrep "http://ns.adobe.com/ImageReplacement/1.0/">
	<!ENTITY ns_sfw "http://ns.adobe.com/SaveForWeb/1.0/">
	<!ENTITY ns_custom "http://ns.adobe.com/GenericCustomNamespace/1.0/">
	<!ENTITY ns_adobe_xpath "http://ns.adobe.com/XPath/1.0/">
	<!ENTITY st0 "fill:#42392B;">
]>
<svg version="1.1" id="图层_1" xmlns:x="&ns_extend;" xmlns:i="&ns_ai;" xmlns:graph="&ns_graphs;"
	 xmlns="http://www.w3.org/2000/svg" xmlns:xlink="http://www.w3.org/1999/xlink" x="0px" y="0px" viewBox="0 0 200.2 200"
	 style="enable-background:new 0 0 200.2 200;" xml:space="preserve">
<metadata>
	<sfw  xmlns="&ns_sfw;">
		<slices></slices>
		<sliceSourceBounds  bottomLeftOrigin="true" height="130.11" width="158.44" x="20.88" y="31.4"></sliceSourceBounds>
	</sfw>
</metadata>
<path style="&st0;" d="M56.28,99.8H27.07c-3.25,0-6.2,2.69-6.2,6.28v62.51h41.3v-62.81C62.18,102.49,59.52,99.8,56.28,99.8z
	 M114.69,74.38H85.48c-3.24,0-6.2,2.69-6.2,6.28v87.94h41.3V80.36C120.88,77.07,118.23,74.38,114.69,74.38z M173.4,38.48h-29.21
	c-3.24,0-6.2,2.69-6.2,6.28V168.6h41.3V44.47C179.59,41.18,176.94,38.48,173.4,38.48L173.4,38.48z"/>
</svg>
