<?xml version="1.0" encoding="utf-8"?>
<!-- Generator: Adobe Illustrator 23.0.0, SVG Export Plug-In . SVG Version: 6.00 Build 0)  -->
<!DOCTYPE svg PUBLIC "-//W3C//DTD SVG 1.1//EN" "http://www.w3.org/Graphics/SVG/1.1/DTD/svg11.dtd" [
	<!ENTITY ns_extend "http://ns.adobe.com/Extensibility/1.0/">
	<!ENTITY ns_ai "http://ns.adobe.com/AdobeIllustrator/10.0/">
	<!ENTITY ns_graphs "http://ns.adobe.com/Graphs/1.0/">
	<!ENTITY ns_vars "http://ns.adobe.com/Variables/1.0/">
	<!ENTITY ns_imrep "http://ns.adobe.com/ImageReplacement/1.0/">
	<!ENTITY ns_sfw "http://ns.adobe.com/SaveForWeb/1.0/">
	<!ENTITY ns_custom "http://ns.adobe.com/GenericCustomNamespace/1.0/">
	<!ENTITY ns_adobe_xpath "http://ns.adobe.com/XPath/1.0/">
]>
<svg version="1.1" id="图层_1" xmlns:x="&ns_extend;" xmlns:i="&ns_ai;" xmlns:graph="&ns_graphs;"
	 xmlns="http://www.w3.org/2000/svg" xmlns:xlink="http://www.w3.org/1999/xlink" x="0px" y="0px" viewBox="0 0 200 200"
	 style="enable-background:new 0 0 200 200;" xml:space="preserve">
<metadata>
	<sfw  xmlns="&ns_sfw;">
		<slices></slices>
		<sliceSourceBounds  bottomLeftOrigin="true" height="165.45" width="141.82" x="33.18" y="17.27"></sliceSourceBounds>
	</sfw>
</metadata>
<path d="M144.09,169.09H40.45c-3.64,0-6.82,3.18-6.82,6.82c0,3.64,3.18,6.82,6.82,6.82h104.09c3.64,0,6.82-3.18,6.82-6.82
	C151.36,172.27,148.18,169.09,144.09,169.09z M50.9,158.18l28.64-1.36c5.45,0.45,10.45-1.82,14.09-5.45l54.55-54.55L95.45,44.09
	L40.9,98.64c-3.64,3.64-5.45,8.64-5.45,13.64l-2.27,26.82V140c0,5,2.27,9.55,5.45,12.73C41.81,155.91,45.9,157.73,50.9,158.18
	L50.9,158.18z M169.54,48.64l-25.91-25.91c-7.27-7.27-19.55-7.27-26.82,0l-11.82,11.82l52.73,52.73l11.82-11.82
	C176.81,67.73,176.81,55.91,169.54,48.64z"/>
</svg>
