<?xml version="1.0" encoding="utf-8"?>
<!-- Generator: Adobe Illustrator 23.0.0, SVG Export Plug-In . SVG Version: 6.00 Build 0)  -->
<!DOCTYPE svg PUBLIC "-//W3C//DTD SVG 1.1//EN" "http://www.w3.org/Graphics/SVG/1.1/DTD/svg11.dtd" [
	<!ENTITY ns_extend "http://ns.adobe.com/Extensibility/1.0/">
	<!ENTITY ns_ai "http://ns.adobe.com/AdobeIllustrator/10.0/">
	<!ENTITY ns_graphs "http://ns.adobe.com/Graphs/1.0/">
	<!ENTITY ns_vars "http://ns.adobe.com/Variables/1.0/">
	<!ENTITY ns_imrep "http://ns.adobe.com/ImageReplacement/1.0/">
	<!ENTITY ns_sfw "http://ns.adobe.com/SaveForWeb/1.0/">
	<!ENTITY ns_custom "http://ns.adobe.com/GenericCustomNamespace/1.0/">
	<!ENTITY ns_adobe_xpath "http://ns.adobe.com/XPath/1.0/">
]>
<svg version="1.1" id="图层_1" xmlns:x="&ns_extend;" xmlns:i="&ns_ai;" xmlns:graph="&ns_graphs;"
	 xmlns="http://www.w3.org/2000/svg" xmlns:xlink="http://www.w3.org/1999/xlink" x="0px" y="0px" viewBox="0 0 200 200"
	 style="enable-background:new 0 0 200 200;" xml:space="preserve">
<metadata>
	<sfw  xmlns="&ns_sfw;">
		<slices></slices>
		<sliceSourceBounds  bottomLeftOrigin="true" height="199.71" width="183.45" x="13.46" y="0.14"></sliceSourceBounds>
	</sfw>
</metadata>
<path d="M134.02,37.27c-1.46,0-2.69-0.5-3.69-1.5c-1-1-1.83-2.16-2.5-3.49c-0.67-1.33-1.16-2.69-1.5-4.09
	c-0.33-1.4-0.5-2.56-0.5-3.49V0.14h0.4c1.2,0,2.33,0.13,3.39,0.4c1.06,0.27,2.36,0.9,3.89,1.9s3.39,2.4,5.59,4.19
	c2.2,1.8,4.96,4.16,8.28,7.09c3.59,3.19,6.45,5.89,8.58,8.08c2.13,2.2,3.76,4.06,4.89,5.59s1.83,2.83,2.1,3.89
	c0.27,1.06,0.4,2,0.4,2.79v3.19L134.02,37.27L134.02,37.27z M196.09,131.28c0.4,1.06,0.67,2.4,0.8,3.99c0.13,1.6-0.53,3.13-2,4.59
	c-0.67,0.67-1.26,1.3-1.8,1.9c-0.53,0.6-1,1.1-1.4,1.5c-0.53,0.53-1,0.93-1.4,1.2l-16.97-16.77c0.8-0.67,1.7-1.46,2.69-2.4
	c1-0.93,1.83-1.66,2.5-2.2c1.6-1.46,3.33-2.1,5.19-1.9c1.86,0.2,3.39,0.63,4.59,1.3c1.33,0.67,2.76,1.83,4.29,3.49
	C194.13,127.65,195.29,129.42,196.09,131.28z M125.63,149.84c2.93,0,5.39-0.8,7.39-2.4L94.3,187.77H39.21
	c-2.53,0-5.29-0.73-8.28-2.2s-5.79-3.39-8.38-5.79s-4.76-5.16-6.49-8.28c-1.73-3.13-2.59-6.35-2.59-9.68V25.89
	c0-2.79,0.63-5.72,1.9-8.78c1.26-3.06,2.99-5.82,5.19-8.28s4.69-4.52,7.49-6.19s5.72-2.5,8.78-2.5h76.45v24.95
	c0,2.53,0.4,5.26,1.2,8.18s2.03,5.62,3.69,8.08c1.66,2.46,3.83,4.52,6.49,6.19c2.66,1.66,5.85,2.5,9.58,2.5h29.14v66.07
	l-27.35,28.34c1.46-2.13,2.2-4.46,2.2-6.99c0-3.46-1.23-6.42-3.69-8.88s-5.42-3.69-8.88-3.69H50.78c-3.46,0-6.39,1.23-8.78,3.69
	s-3.59,5.42-3.59,8.88s1.2,6.39,3.59,8.78c2.4,2.4,5.32,3.59,8.78,3.59L125.63,149.84L125.63,149.84z M50.78,74.99
	c-3.46,0-6.39,1.23-8.78,3.69c-2.4,2.46-3.59,5.42-3.59,8.88s1.2,6.39,3.59,8.78c2.4,2.4,5.32,3.59,8.78,3.59h74.85
	c3.46,0,6.42-1.2,8.88-3.59s3.69-5.32,3.69-8.78s-1.23-6.42-3.69-8.88c-2.46-2.46-5.42-3.69-8.88-3.69H50.78z M126.03,174.99
	l2.59-2.59l4.99-4.99c2-2,4.19-4.22,6.59-6.69c2.4-2.46,4.79-4.89,7.19-7.29c5.72-5.72,12.18-12.11,19.36-19.16l16.77,16.77
	l-19.36,19.36l-7.19,7.19l-6.59,6.59c-1.86,1.86-3.43,3.46-4.69,4.79c-1.26,1.33-1.96,2.06-2.1,2.2c-0.67,0.53-1.4,1.1-2.2,1.7
	s-1.6,1.1-2.4,1.5c-0.8,0.4-2.03,0.9-3.69,1.5s-3.36,1.16-5.09,1.7c-1.73,0.53-3.39,1-4.99,1.4s-2.79,0.67-3.59,0.8
	c-1.6,0.27-2.66,0.07-3.19-0.6c-0.53-0.67-0.67-1.8-0.4-3.39c0.13-0.8,0.4-2,0.8-3.59c0.4-1.6,0.86-3.23,1.4-4.89
	s1.03-3.23,1.5-4.69c0.47-1.46,0.83-2.46,1.1-2.99C123.64,177.85,124.7,176.32,126.03,174.99L126.03,174.99z"/>
</svg>
