<?xml version="1.0" encoding="utf-8"?>
<!-- Generator: Adobe Illustrator 23.0.0, SVG Export Plug-In . SVG Version: 6.00 Build 0)  -->
<!DOCTYPE svg PUBLIC "-//W3C//DTD SVG 1.1//EN" "http://www.w3.org/Graphics/SVG/1.1/DTD/svg11.dtd" [
	<!ENTITY ns_extend "http://ns.adobe.com/Extensibility/1.0/">
	<!ENTITY ns_ai "http://ns.adobe.com/AdobeIllustrator/10.0/">
	<!ENTITY ns_graphs "http://ns.adobe.com/Graphs/1.0/">
	<!ENTITY ns_vars "http://ns.adobe.com/Variables/1.0/">
	<!ENTITY ns_imrep "http://ns.adobe.com/ImageReplacement/1.0/">
	<!ENTITY ns_sfw "http://ns.adobe.com/SaveForWeb/1.0/">
	<!ENTITY ns_custom "http://ns.adobe.com/GenericCustomNamespace/1.0/">
	<!ENTITY ns_adobe_xpath "http://ns.adobe.com/XPath/1.0/">
]>
<svg version="1.1" id="图层_1" xmlns:x="&ns_extend;" xmlns:i="&ns_ai;" xmlns:graph="&ns_graphs;"
	 xmlns="http://www.w3.org/2000/svg" xmlns:xlink="http://www.w3.org/1999/xlink" x="0px" y="0px" viewBox="0 0 36 36"
	 style="enable-background:new 0 0 36 36;" xml:space="preserve">
<style type="text/css">
	.st0{fill:#42392B;}
	.st1{fill:#FFE1B4;}
</style>
<metadata>
	<sfw  xmlns="&ns_sfw;">
		<slices></slices>
		<sliceSourceBounds  bottomLeftOrigin="true" height="32" width="32" x="2" y="2"></sliceSourceBounds>
	</sfw>
</metadata>
<g>
	<circle class="st0" cx="18" cy="18" r="16"/>
</g>
<path class="st1" d="M15.8,20.8c-1.5,1.6-4.1,1.8-5.7,0.2s-1.8-4.1-0.2-5.7s4.1-1.8,5.7-0.2c0,0,0,0,0,0l3.5-2.3
	c-0.6-1.6,0.1-3.3,1.7-4s3.3,0.1,4,1.7s-0.1,3.3-1.7,4c-1.1,0.4-2.3,0.2-3.2-0.6l-3.5,2.3c0.3,0.6,0.5,1.2,0.5,1.9
	c0,0.6-0.1,1.1-0.3,1.6l5.1,2.9c1.1-1.3,3-1.5,4.3-0.4c1.3,1.1,1.5,3,0.4,4.3s-3,1.5-4.3,0.4c-0.9-0.8-1.3-2-1-3.1L15.8,20.8
	L15.8,20.8z"/>
</svg>
