<?xml version="1.0" encoding="utf-8"?>
<!-- Generator: Adobe Illustrator 23.0.0, SVG Export Plug-In . SVG Version: 6.00 Build 0)  -->
<!DOCTYPE svg PUBLIC "-//W3C//DTD SVG 1.1//EN" "http://www.w3.org/Graphics/SVG/1.1/DTD/svg11.dtd" [
	<!ENTITY ns_extend "http://ns.adobe.com/Extensibility/1.0/">
	<!ENTITY ns_ai "http://ns.adobe.com/AdobeIllustrator/10.0/">
	<!ENTITY ns_graphs "http://ns.adobe.com/Graphs/1.0/">
	<!ENTITY ns_vars "http://ns.adobe.com/Variables/1.0/">
	<!ENTITY ns_imrep "http://ns.adobe.com/ImageReplacement/1.0/">
	<!ENTITY ns_sfw "http://ns.adobe.com/SaveForWeb/1.0/">
	<!ENTITY ns_custom "http://ns.adobe.com/GenericCustomNamespace/1.0/">
	<!ENTITY ns_adobe_xpath "http://ns.adobe.com/XPath/1.0/">
	<!ENTITY st0 "fill:#42392B;">
	<!ENTITY st1 "fill:#FFFFFF;">
]>
<svg version="1.1" id="图层_1" xmlns:x="&ns_extend;" xmlns:i="&ns_ai;" xmlns:graph="&ns_graphs;"
	 xmlns="http://www.w3.org/2000/svg" xmlns:xlink="http://www.w3.org/1999/xlink" x="0px" y="0px" viewBox="0 0 36 36"
	 style="enable-background:new 0 0 36 36;" xml:space="preserve">
<metadata>
	<sfw  xmlns="&ns_sfw;">
		<slices></slices>
		<sliceSourceBounds  bottomLeftOrigin="true" height="32" width="32" x="2" y="2"></sliceSourceBounds>
	</sfw>
</metadata>
<g>
	<circle style="&st0;" cx="18" cy="18" r="16"/>
</g>
<path style="&st1;" d="M15.78,20.75c-1.52,1.65-4.09,1.75-5.74,0.23s-1.75-4.09-0.23-5.74s4.09-1.75,5.74-0.23
	c0.01,0.01,0.01,0.01,0.02,0.02l3.54-2.31c-0.64-1.56,0.11-3.33,1.67-3.97s3.33,0.11,3.97,1.67s-0.11,3.33-1.67,3.97
	c-1.08,0.44-2.32,0.23-3.19-0.56l-3.5,2.28c0.3,0.56,0.47,1.21,0.47,1.89c0,0.56-0.11,1.11-0.33,1.61l5.1,2.87
	c1.08-1.29,3-1.47,4.29-0.39c1.29,1.08,1.47,3,0.39,4.29s-3,1.47-4.29,0.39c-0.9-0.75-1.29-1.95-1.01-3.08L15.78,20.75L15.78,20.75z
	"/>
</svg>
