<?xml version="1.0" encoding="utf-8"?>
<!-- Generator: Adobe Illustrator 23.0.0, SVG Export Plug-In . SVG Version: 6.00 Build 0)  -->
<!DOCTYPE svg PUBLIC "-//W3C//DTD SVG 1.1//EN" "http://www.w3.org/Graphics/SVG/1.1/DTD/svg11.dtd" [
	<!ENTITY ns_extend "http://ns.adobe.com/Extensibility/1.0/">
	<!ENTITY ns_ai "http://ns.adobe.com/AdobeIllustrator/10.0/">
	<!ENTITY ns_graphs "http://ns.adobe.com/Graphs/1.0/">
	<!ENTITY ns_vars "http://ns.adobe.com/Variables/1.0/">
	<!ENTITY ns_imrep "http://ns.adobe.com/ImageReplacement/1.0/">
	<!ENTITY ns_sfw "http://ns.adobe.com/SaveForWeb/1.0/">
	<!ENTITY ns_custom "http://ns.adobe.com/GenericCustomNamespace/1.0/">
	<!ENTITY ns_adobe_xpath "http://ns.adobe.com/XPath/1.0/">
]>
<svg version="1.1" id="图层_1" xmlns:x="&ns_extend;" xmlns:i="&ns_ai;" xmlns:graph="&ns_graphs;"
	 xmlns="http://www.w3.org/2000/svg" xmlns:xlink="http://www.w3.org/1999/xlink" x="0px" y="0px" viewBox="0 0 36 36"
	 style="enable-background:new 0 0 36 36;" xml:space="preserve">
<style type="text/css">
	.st0{fill:#42392B;}
	.st1{fill:#FFE1B4;}
</style>
<metadata>
	<sfw  xmlns="&ns_sfw;">
		<slices></slices>
		<sliceSourceBounds  bottomLeftOrigin="true" height="32" width="32" x="2" y="2"></sliceSourceBounds>
	</sfw>
</metadata>
<g>
	<circle class="st0" cx="18" cy="18" r="16"/>
</g>
<path class="st1" d="M18,9c5,0,9,4,9,9s-4,9-9,9s-9-4-9-9S13,9,18,9z M20.6,21.8h-5.3c0.2,1.2,0.5,2.4,0.9,3.5
	c0.6,0.1,1.2,0.2,1.8,0.2c0.6,0,1.2-0.1,1.8-0.2C20,24.6,20.3,23.4,20.6,21.8z M24.5,21.8h-2.3c-0.1,1-0.4,1.9-0.6,2.9
	C22.8,24,23.8,23,24.5,21.8z M13.8,21.8h-2.3c0.7,1.2,1.7,2.2,2.9,2.8C14.1,23.7,13.9,22.7,13.8,21.8L13.8,21.8z M13.6,15.8h-2.8
	c-0.2,0.7-0.3,1.5-0.3,2.3c0,0.8,0.1,1.5,0.3,2.3h2.8C13.5,18.8,13.5,17.3,13.6,15.8L13.6,15.8z M20.8,15.8h-5.7
	c-0.2,1.5-0.2,3,0,4.5h5.7C21,18.8,21,17.3,20.8,15.8z M25.2,15.8h-2.8c0.1,1.5,0.2,3,0,4.5h2.8c0.2-0.7,0.3-1.5,0.3-2.3
	C25.5,17.2,25.4,16.5,25.2,15.8L25.2,15.8z M14.4,11.4c-1.2,0.7-2.3,1.7-2.9,2.8h2.3C14,13.3,14.2,12.4,14.4,11.4z M18,10.5
	c-0.6,0-1.2,0.1-1.8,0.2c-0.4,1.2-0.7,2.3-0.9,3.5h5.3c-0.2-1.2-0.5-2.4-0.9-3.6C19.2,10.6,18.6,10.5,18,10.5z M21.5,11.4
	c0.3,0.9,0.5,2,0.6,2.9h2.4C23.8,13,22.8,12,21.5,11.4z"/>
</svg>
