<?xml version="1.0" encoding="utf-8"?>
<!-- Generator: Adobe Illustrator 23.0.0, SVG Export Plug-In . SVG Version: 6.00 Build 0)  -->
<!DOCTYPE svg PUBLIC "-//W3C//DTD SVG 1.1//EN" "http://www.w3.org/Graphics/SVG/1.1/DTD/svg11.dtd" [
	<!ENTITY ns_extend "http://ns.adobe.com/Extensibility/1.0/">
	<!ENTITY ns_ai "http://ns.adobe.com/AdobeIllustrator/10.0/">
	<!ENTITY ns_graphs "http://ns.adobe.com/Graphs/1.0/">
	<!ENTITY ns_vars "http://ns.adobe.com/Variables/1.0/">
	<!ENTITY ns_imrep "http://ns.adobe.com/ImageReplacement/1.0/">
	<!ENTITY ns_sfw "http://ns.adobe.com/SaveForWeb/1.0/">
	<!ENTITY ns_custom "http://ns.adobe.com/GenericCustomNamespace/1.0/">
	<!ENTITY ns_adobe_xpath "http://ns.adobe.com/XPath/1.0/">
	<!ENTITY st0 "fill:#D06969;">
]>
<svg version="1.1" id="图层_1" xmlns:x="&ns_extend;" xmlns:i="&ns_ai;" xmlns:graph="&ns_graphs;"
	 xmlns="http://www.w3.org/2000/svg" xmlns:xlink="http://www.w3.org/1999/xlink" x="0px" y="0px" viewBox="0 0 200 200"
	 style="enable-background:new 0 0 200 200;" xml:space="preserve">
<metadata>
	<sfw  xmlns="&ns_sfw;">
		<slices></slices>
		<sliceSourceBounds  bottomLeftOrigin="true" height="136" width="135.67" x="31.36" y="34.84"></sliceSourceBounds>
	</sfw>
</metadata>
<path style="&st0;" d="M79.75,47.72l49.3,11.81c3.35,0.8,5.42,4.17,4.61,7.51c-0.8,3.34-4.16,5.4-7.51,4.61l-49.3-11.81
	c-3.35-0.79-5.42-4.16-4.61-7.51S76.4,46.92,79.75,47.72z"/>
<path style="&st0;" d="M120.99,94.96l-3.34,13.96c-2.14,8.94-11.11,14.43-20.04,12.29l-16.17-3.87
	c-8.93-2.14-14.43-11.11-12.29-20.04l10.26-42.83c2.14-8.93,11.11-14.43,20.04-12.29l16.17,3.87c8.93,2.14,14.43,11.11,12.29,20.04
	l-2.58,10.73c0.68,0.02,1.38,0.09,2.08,0.26l39.49,9.46C163.52,48.29,141,29.16,99.36,29.16c-45.34,0-68,22.66-68,68s22.66,68,68,68
	c42.2,0,64.75-19.64,67.67-58.92l-44.08-10.56C122.27,95.51,121.61,95.26,120.99,94.96z M135.41,141.54c0,0.55-0.24,6.77-0.24,6.77
	l-74.24-0.02c0,0-0.03-0.11-0.03-0.38c0-2.06,0.03-4.14-0.02-6.41c-0.12-8.09,9.43-14.24,16.45-14.24h41.53
	C127.94,127.26,135.41,132.47,135.41,141.54z"/>
</svg>
