<?xml version="1.0" encoding="utf-8"?>
<!-- Generator: Adobe Illustrator 23.0.0, SVG Export Plug-In . SVG Version: 6.00 Build 0)  -->
<!DOCTYPE svg PUBLIC "-//W3C//DTD SVG 1.1//EN" "http://www.w3.org/Graphics/SVG/1.1/DTD/svg11.dtd" [
	<!ENTITY ns_extend "http://ns.adobe.com/Extensibility/1.0/">
	<!ENTITY ns_ai "http://ns.adobe.com/AdobeIllustrator/10.0/">
	<!ENTITY ns_graphs "http://ns.adobe.com/Graphs/1.0/">
	<!ENTITY ns_vars "http://ns.adobe.com/Variables/1.0/">
	<!ENTITY ns_imrep "http://ns.adobe.com/ImageReplacement/1.0/">
	<!ENTITY ns_sfw "http://ns.adobe.com/SaveForWeb/1.0/">
	<!ENTITY ns_custom "http://ns.adobe.com/GenericCustomNamespace/1.0/">
	<!ENTITY ns_adobe_xpath "http://ns.adobe.com/XPath/1.0/">
	<!ENTITY st0 "fill:#42392B;">
]>
<svg version="1.1" id="图层_1" xmlns:x="&ns_extend;" xmlns:i="&ns_ai;" xmlns:graph="&ns_graphs;"
	 xmlns="http://www.w3.org/2000/svg" xmlns:xlink="http://www.w3.org/1999/xlink" x="0px" y="0px" viewBox="0 0 200.2 200"
	 style="enable-background:new 0 0 200.2 200;" xml:space="preserve">
<metadata>
	<sfw  xmlns="&ns_sfw;">
		<slices></slices>
		<sliceSourceBounds  bottomLeftOrigin="true" height="160.21" width="111.63" x="47.37" y="19.87"></sliceSourceBounds>
	</sfw>
</metadata>
<path style="&st0;" d="M126.43,101.52c2.5-0.7,4.9-1.4,7.2-2.1c2-0.6,4.05-1.2,6.15-1.8s3.85-1.15,5.25-1.65l-2.1,7.95
	c-0.6,2.2-1.15,3.85-1.65,4.95c-1,2.7-2.18,5.2-3.53,7.5s-2.63,4.3-3.83,6c-1.4,2-2.85,3.85-4.35,5.55l-18.45,5.55l15.15,2.7
	c-2,1.7-4.15,3.45-6.45,5.25c-2,1.5-4.28,3.08-6.83,4.73s-5.23,3.18-8.03,4.58c-2.8,1.4-5.93,2.13-9.38,2.18s-6.73-0.18-9.83-0.68
	c-3.6-0.5-7.2-1.35-10.8-2.55c1.1-1.7,2.3-3.6,3.6-5.7c1.1-1.8,2.43-3.93,3.98-6.38c1.55-2.45,3.18-5.18,4.88-8.18
	c4.8-8.1,9.45-16.05,13.95-23.85c4.5-7.8,8.55-14.85,12.15-21.15c4.1-7.3,8.05-14.2,11.85-20.7c-4.7,5.4-9.65,11.45-14.85,18.15
	c-4.5,5.7-9.5,12.48-15,20.33s-11.1,16.43-16.8,25.73c-1.2,1.9-2.55,4.1-4.05,6.6c-1.5,2.5-3.08,5.15-4.73,7.95
	c-1.65,2.8-3.35,5.68-5.1,8.63c-1.75,2.95-3.48,5.83-5.18,8.63c-4,6.5-8.1,13.3-12.3,20.4c0.1-2.1,0.5-4.8,1.2-8.1
	c0.6-2.8,1.6-6.3,3-10.5s3.4-9.15,6-14.85c1.7-3.6,3-6.4,3.9-8.4c0.9-2,1.6-3.55,2.1-4.65c0.5-1.2,0.9-2,1.2-2.4
	c-0.5-0.6-0.6-1.8-0.3-3.6c0.2-1.6,0.78-3.93,1.73-6.98c0.95-3.05,2.58-7.33,4.88-12.83c2.3-5.6,5.33-11.63,9.08-18.08
	c3.75-6.45,7.98-12.85,12.68-19.2c4.7-6.35,9.8-12.5,15.3-18.45c5.5-5.95,11.13-11.23,16.88-15.83c5.75-4.6,11.5-8.38,17.25-11.33
	s11.33-4.63,16.73-5.03c0.1,3.5-0.25,8.13-1.05,13.88s-1.8,11.9-3,18.45c-1.2,6.55-2.55,13.2-4.05,19.95
	c-1.5,6.75-2.95,12.88-4.35,18.38L126.43,101.52z"/>
</svg>
