<?xml version="1.0" encoding="utf-8"?>
<!-- Generator: Adobe Illustrator 23.0.0, SVG Export Plug-In . SVG Version: 6.00 Build 0)  -->
<!DOCTYPE svg PUBLIC "-//W3C//DTD SVG 1.1//EN" "http://www.w3.org/Graphics/SVG/1.1/DTD/svg11.dtd" [
	<!ENTITY ns_extend "http://ns.adobe.com/Extensibility/1.0/">
	<!ENTITY ns_ai "http://ns.adobe.com/AdobeIllustrator/10.0/">
	<!ENTITY ns_graphs "http://ns.adobe.com/Graphs/1.0/">
	<!ENTITY ns_vars "http://ns.adobe.com/Variables/1.0/">
	<!ENTITY ns_imrep "http://ns.adobe.com/ImageReplacement/1.0/">
	<!ENTITY ns_sfw "http://ns.adobe.com/SaveForWeb/1.0/">
	<!ENTITY ns_custom "http://ns.adobe.com/GenericCustomNamespace/1.0/">
	<!ENTITY ns_adobe_xpath "http://ns.adobe.com/XPath/1.0/">
	<!ENTITY st0 "fill:#FFFFFF;">
	<!ENTITY st1 "fill:#AD8141;">
]>
<svg version="1.1" id="图层_1" xmlns:x="&ns_extend;" xmlns:i="&ns_ai;" xmlns:graph="&ns_graphs;"
	 xmlns="http://www.w3.org/2000/svg" xmlns:xlink="http://www.w3.org/1999/xlink" x="0px" y="0px" viewBox="0 0 36 36"
	 style="enable-background:new 0 0 36 36;" xml:space="preserve">
<metadata>
	<sfw  xmlns="&ns_sfw;">
		<slices></slices>
		<sliceSourceBounds  bottomLeftOrigin="true" height="32" width="32" x="2" y="-34"></sliceSourceBounds>
	</sfw>
</metadata>
<g>
	<circle style="&st0;" cx="18" cy="18" r="15.71"/>
	<path d="M18,2.58c8.5,0,15.42,6.92,15.42,15.42S26.5,33.42,18,33.42S2.58,26.5,2.58,18S9.5,2.58,18,2.58 M18,2C9.16,2,2,9.16,2,18
		s7.16,16,16,16s16-7.16,16-16S26.84,2,18,2L18,2z"/>
</g>
<path style="&st1;" d="M18.16,18.79c2.7,0,4.89-2.19,4.89-4.89S20.86,9,18.16,9s-4.89,2.19-4.89,4.89S15.46,18.79,18.16,18.79z
	 M18.16,21.07c-4.51,0-8.16,1.44-8.16,3.21c0,1.77,3.65,3.22,8.16,3.22s8.16-1.44,8.16-3.21S22.66,21.07,18.16,21.07L18.16,21.07z"
	/>
</svg>
