<?xml version="1.0" encoding="utf-8"?>
<!-- Generator: Adobe Illustrator 23.0.0, SVG Export Plug-In . SVG Version: 6.00 Build 0)  -->
<!DOCTYPE svg PUBLIC "-//W3C//DTD SVG 1.1//EN" "http://www.w3.org/Graphics/SVG/1.1/DTD/svg11.dtd" [
	<!ENTITY ns_extend "http://ns.adobe.com/Extensibility/1.0/">
	<!ENTITY ns_ai "http://ns.adobe.com/AdobeIllustrator/10.0/">
	<!ENTITY ns_graphs "http://ns.adobe.com/Graphs/1.0/">
	<!ENTITY ns_vars "http://ns.adobe.com/Variables/1.0/">
	<!ENTITY ns_imrep "http://ns.adobe.com/ImageReplacement/1.0/">
	<!ENTITY ns_sfw "http://ns.adobe.com/SaveForWeb/1.0/">
	<!ENTITY ns_custom "http://ns.adobe.com/GenericCustomNamespace/1.0/">
	<!ENTITY ns_adobe_xpath "http://ns.adobe.com/XPath/1.0/">
]>
<svg version="1.1" id="图层_1" xmlns:x="&ns_extend;" xmlns:i="&ns_ai;" xmlns:graph="&ns_graphs;"
	 xmlns="http://www.w3.org/2000/svg" xmlns:xlink="http://www.w3.org/1999/xlink" x="0px" y="0px" viewBox="0 0 200 200"
	 style="enable-background:new 0 0 200 200;" xml:space="preserve">
<metadata>
	<sfw  xmlns="&ns_sfw;">
		<slices></slices>
		<sliceSourceBounds  bottomLeftOrigin="true" height="200" width="162.52" x="18.74" y="0"></sliceSourceBounds>
	</sfw>
</metadata>
<path d="M162.47,0H37.49C27.14,0,18.74,8.4,18.74,18.75v162.97c0,0.31,0.02,0.64,0.06,0.96c0.02,0.16,0.02,0.31,0.04,0.49
	c0.9,8.79,7.95,15.82,16.74,16.74c0.16,0.02,0.31,0.04,0.49,0.04c0.31,0.02,0.64,0.04,0.96,0.06h125.96c0.31,0,0.64-0.02,0.96-0.06
	c0.16-0.02,0.31-0.02,0.49-0.04c8.79-0.9,15.82-7.95,16.74-16.74c0.02-0.16,0.04-0.31,0.04-0.49c0.02-0.31,0.04-0.64,0.06-0.96
	V18.75C181.22,8.4,172.82,0,162.47,0z M49.99,34.37c0-1.72,1.41-3.12,3.12-3.12h93.74c1.72,0,3.12,1.41,3.12,3.12v31.25
	c0,1.72-1.41,3.12-3.12,3.12H53.11c-1.72,0-3.12-1.41-3.12-3.12V34.37z M49.99,82.8c0-0.86,0.7-1.56,1.56-1.56h96.87
	c0.86,0,1.56,0.7,1.56,1.56v9.37c0,0.86-0.7,1.56-1.56,1.56H51.55c-0.86,0-1.56-0.7-1.56-1.56C49.99,92.18,49.99,82.8,49.99,82.8z
	 M49.99,107.8c0-0.86,0.7-1.56,1.56-1.56h96.87c0.86,0,1.56,0.7,1.56,1.56v9.37c0,0.86-0.7,1.56-1.56,1.56H51.55
	c-0.86,0-1.56-0.7-1.56-1.56C49.99,117.18,49.99,107.8,49.99,107.8z M168.72,181.45v0.2c0,0.06,0,0.1-0.02,0.16
	c-0.02,0.16-0.04,0.29-0.06,0.45c0,0.06-0.02,0.12-0.04,0.18c0,0.06-0.02,0.12-0.04,0.18c-0.53,2.36-2.38,4.22-4.75,4.75
	c-0.06,0.02-0.12,0.02-0.18,0.04s-0.12,0.02-0.18,0.02c-0.14,0.02-0.29,0.04-0.45,0.06c-0.06,0-0.1,0-0.16,0.02H37.08
	c-0.06,0-0.1,0-0.16-0.02c-0.16-0.02-0.29-0.04-0.45-0.06c-0.06,0-0.12-0.02-0.18-0.02c-0.06,0-0.12-0.02-0.18-0.04
	c-2.36-0.53-4.22-2.38-4.75-4.75c-0.02-0.06-0.02-0.12-0.04-0.18c-0.02-0.06-0.02-0.12-0.04-0.18c-0.02-0.14-0.04-0.29-0.06-0.45
	c0-0.06,0-0.1-0.02-0.16v-0.2v-5.68c0-0.43,0.35-0.78,0.78-0.78h130.46c3.46,0,6.25,2.79,6.25,6.25
	C168.72,181.31,168.72,181.37,168.72,181.45z"/>
</svg>
