<?xml version="1.0" encoding="utf-8"?>
<!-- Generator: Adobe Illustrator 23.0.0, SVG Export Plug-In . SVG Version: 6.00 Build 0)  -->
<!DOCTYPE svg PUBLIC "-//W3C//DTD SVG 1.1//EN" "http://www.w3.org/Graphics/SVG/1.1/DTD/svg11.dtd" [
	<!ENTITY ns_extend "http://ns.adobe.com/Extensibility/1.0/">
	<!ENTITY ns_ai "http://ns.adobe.com/AdobeIllustrator/10.0/">
	<!ENTITY ns_graphs "http://ns.adobe.com/Graphs/1.0/">
	<!ENTITY ns_vars "http://ns.adobe.com/Variables/1.0/">
	<!ENTITY ns_imrep "http://ns.adobe.com/ImageReplacement/1.0/">
	<!ENTITY ns_sfw "http://ns.adobe.com/SaveForWeb/1.0/">
	<!ENTITY ns_custom "http://ns.adobe.com/GenericCustomNamespace/1.0/">
	<!ENTITY ns_adobe_xpath "http://ns.adobe.com/XPath/1.0/">
	<!ENTITY st0 "fill:#8B5E28;">
]>
<svg version="1.1" id="图层_1" xmlns:x="&ns_extend;" xmlns:i="&ns_ai;" xmlns:graph="&ns_graphs;"
	 xmlns="http://www.w3.org/2000/svg" xmlns:xlink="http://www.w3.org/1999/xlink" x="0px" y="0px" viewBox="0 0 200 200"
	 style="enable-background:new 0 0 200 200;" xml:space="preserve">
<metadata>
	<sfw  xmlns="&ns_sfw;">
		<slices></slices>
		<sliceSourceBounds  bottomLeftOrigin="true" height="185.21" width="200.01" x="0" y="7.38"></sliceSourceBounds>
	</sfw>
</metadata>
<path style="&st0;" d="M199.11,58.5c-13.05-23.36-34.06-41.35-59.16-50.64c-3.67-1.37-7.77,0.53-9.14,4.2
	c-1.37,3.69,0.53,7.77,4.2,9.14c21.93,8.11,40.27,23.83,51.66,44.24c1.31,2.32,3.71,3.65,6.21,3.65c1.17,0,2.36-0.29,3.46-0.9
	C199.79,66.27,201.02,61.93,199.11,58.5z M65,21.19c3.69-1.37,5.57-5.45,4.2-9.14s-5.47-5.57-9.14-4.2
	C34.96,17.15,13.95,35.14,0.9,58.5c-1.91,3.44-0.68,7.75,2.75,9.67c1.09,0.61,2.29,0.9,3.46,0.9c2.5,0,4.92-1.31,6.21-3.65
	C24.73,45.02,43.07,29.32,65,21.19z M100.04,83.91c-3.93,0-7.11,3.18-7.11,7.11v24.82c0,3.93,3.18,7.11,7.11,7.11h24.82
	c3.93,0,7.11-3.18,7.11-7.11c0-3.93-3.18-7.11-7.11-7.11h-17.71V91.02C107.15,87.09,103.97,83.91,100.04,83.91L100.04,83.91z"/>
<path style="&st0;" d="M57.95,47.17c-3.3,2.13-4.26,6.52-2.13,9.82c2.13,3.3,6.52,4.26,9.82,2.13
	c30.04-19.32,70.18-10.59,89.49,19.45c9.36,14.55,12.48,31.86,8.81,48.77c-2.93,13.5-9.92,25.43-20.02,34.45
	c-0.41,0.27-0.8,0.59-1.15,0.94c-0.12,0.12-0.21,0.23-0.31,0.35c-2.13,1.8-4.38,3.46-6.76,4.98c-14.55,9.36-31.86,12.48-48.77,8.81
	c-16.89-3.67-31.37-13.71-40.72-28.26c-14.38-22.36-13.73-50.82,1.66-72.5c2.27-3.2,1.52-7.64-1.68-9.92
	c-3.2-2.27-7.64-1.52-9.92,1.68c-18.77,26.45-19.55,61.15-2.03,88.44c2.52,3.93,5.35,7.58,8.46,10.96l-12.4,12.4
	c-2.77,2.77-2.77,7.29,0,10.06c1.39,1.39,3.2,2.09,5.02,2.09s3.63-0.7,5.04-2.09l12.89-12.91c8.96,6.74,19.36,11.5,30.64,13.96
	c5.62,1.23,11.29,1.84,16.93,1.84c14.98,0,29.67-4.28,42.56-12.58c1.35-0.86,2.66-1.76,3.93-2.7l12.38,12.38
	c1.39,1.39,3.2,2.09,5.02,2.09s3.63-0.7,5.02-2.09c2.77-2.77,2.77-7.29,0-10.06l-11.72-11.72c9.84-10.35,16.7-23.24,19.82-37.56
	c4.47-20.61,0.66-41.74-10.74-59.47C143.56,34.24,94.59,23.61,57.95,47.17z"/>
</svg>
