<?xml version="1.0" encoding="utf-8"?>
<!-- Generator: Adobe Illustrator 23.0.0, SVG Export Plug-In . SVG Version: 6.00 Build 0)  -->
<!DOCTYPE svg PUBLIC "-//W3C//DTD SVG 1.1//EN" "http://www.w3.org/Graphics/SVG/1.1/DTD/svg11.dtd" [
	<!ENTITY ns_extend "http://ns.adobe.com/Extensibility/1.0/">
	<!ENTITY ns_ai "http://ns.adobe.com/AdobeIllustrator/10.0/">
	<!ENTITY ns_graphs "http://ns.adobe.com/Graphs/1.0/">
	<!ENTITY ns_vars "http://ns.adobe.com/Variables/1.0/">
	<!ENTITY ns_imrep "http://ns.adobe.com/ImageReplacement/1.0/">
	<!ENTITY ns_sfw "http://ns.adobe.com/SaveForWeb/1.0/">
	<!ENTITY ns_custom "http://ns.adobe.com/GenericCustomNamespace/1.0/">
	<!ENTITY ns_adobe_xpath "http://ns.adobe.com/XPath/1.0/">
	<!ENTITY st0 "fill:#FFE1B4;">
]>
<svg version="1.1" id="图层_1" xmlns:x="&ns_extend;" xmlns:i="&ns_ai;" xmlns:graph="&ns_graphs;"
	 xmlns="http://www.w3.org/2000/svg" xmlns:xlink="http://www.w3.org/1999/xlink" x="0px" y="0px" viewBox="0 0 200 200"
	 style="enable-background:new 0 0 200 200;" xml:space="preserve">
<metadata>
	<sfw  xmlns="&ns_sfw;">
		<slices></slices>
		<sliceSourceBounds  bottomLeftOrigin="true" height="138.78" width="114.34" x="40.98" y="33.61"></sliceSourceBounds>
	</sfw>
</metadata>
<path style="&st0;" d="M45.36,75.74c0.93,1.36,1.99,2.67,3.2,3.94c4.6,4.87,11.11,9,18.88,12.04c2.65,1.04,5.46,1.93,8.41,2.72
	c5.24,1.34,10.9,2.22,16.8,2.56c1.79,0.11,3.63,0.16,5.49,0.16c1.86,0,3.7-0.05,5.49-0.16c5.89-0.34,11.56-1.22,16.8-2.56
	c2.95-0.77,5.76-1.68,8.41-2.72c7.78-3.01,14.26-7.16,18.88-12.04c1.2-1.25,2.27-2.58,3.2-3.94c0.97-1.43,1.81-2.9,2.47-4.42
	c1.25-2.83,1.93-5.83,1.93-8.93c0-19.2-25.59-34.77-57.15-34.77S41.01,43.18,41.01,62.38c0,3.08,0.66,6.08,1.93,8.93
	C43.55,72.83,44.39,74.31,45.36,75.74L45.36,75.74z M98.14,141.68c-23.17,0-43.23-7.46-55.22-19.02c-1.25,2.86-1.93,5.85-1.93,8.95
	c0,19.2,25.59,34.77,57.15,34.77s57.15-15.55,57.15-34.77c0-3.08-0.66-6.08-1.93-8.95C141.37,134.22,121.3,141.68,98.14,141.68
	L98.14,141.68z"/>
<path style="&st0;" d="M141.02,97.14c-1.75,0.95-3.58,1.86-5.49,2.7c-2.15,0.95-4.4,1.81-6.71,2.58
	c-9.16,3.08-19.56,4.81-30.69,4.81s-21.54-1.72-30.69-4.81c-2.31-0.77-4.56-1.61-6.71-2.58c-1.9-0.82-3.74-1.75-5.49-2.7
	c-4.72-2.58-8.89-5.58-12.35-8.95c-1.25,2.82-1.9,5.87-1.9,8.95c0,3.08,0.66,6.08,1.93,8.95c0.63,1.52,1.5,2.99,2.47,4.42
	c0.93,1.36,1.99,2.67,3.2,3.94c9.86,10.45,28.36,17.48,49.58,17.48s39.72-7.03,49.58-17.48c1.2-1.25,2.27-2.58,3.2-3.94
	c0.97-1.43,1.81-2.9,2.47-4.42c1.25-2.86,1.93-5.85,1.93-8.95c0-3.08-0.66-6.08-1.9-8.95C149.9,91.56,145.73,94.55,141.02,97.14
	L141.02,97.14z"/>
</svg>
