<?xml version="1.0" encoding="utf-8"?>
<!-- Generator: Adobe Illustrator 23.0.0, SVG Export Plug-In . SVG Version: 6.00 Build 0)  -->
<!DOCTYPE svg PUBLIC "-//W3C//DTD SVG 1.1//EN" "http://www.w3.org/Graphics/SVG/1.1/DTD/svg11.dtd" [
	<!ENTITY ns_extend "http://ns.adobe.com/Extensibility/1.0/">
	<!ENTITY ns_ai "http://ns.adobe.com/AdobeIllustrator/10.0/">
	<!ENTITY ns_graphs "http://ns.adobe.com/Graphs/1.0/">
	<!ENTITY ns_vars "http://ns.adobe.com/Variables/1.0/">
	<!ENTITY ns_imrep "http://ns.adobe.com/ImageReplacement/1.0/">
	<!ENTITY ns_sfw "http://ns.adobe.com/SaveForWeb/1.0/">
	<!ENTITY ns_custom "http://ns.adobe.com/GenericCustomNamespace/1.0/">
	<!ENTITY ns_adobe_xpath "http://ns.adobe.com/XPath/1.0/">
	<!ENTITY st0 "fill:#42392B;">
]>
<svg version="1.1" id="图层_1" xmlns:x="&ns_extend;" xmlns:i="&ns_ai;" xmlns:graph="&ns_graphs;"
	 xmlns="http://www.w3.org/2000/svg" xmlns:xlink="http://www.w3.org/1999/xlink" x="0px" y="0px" viewBox="0 0 200.2 200"
	 style="enable-background:new 0 0 200.2 200;" xml:space="preserve">
<metadata>
	<sfw  xmlns="&ns_sfw;">
		<slices></slices>
		<sliceSourceBounds  bottomLeftOrigin="true" height="157.45" width="158.29" x="20.54" y="21.27"></sliceSourceBounds>
	</sfw>
</metadata>
<path style="&st0;" d="M138.71,116.38c-3.57,0-6.55,1.25-8.94,3.76c-2.4,2.51-3.59,5.66-3.59,9.44v44.46
	c-4.23,1.56-8.58,2.73-13.04,3.51c-4.46,0.78-9.08,1.17-13.87,1.17c-10.92,0-21.14-2.06-30.67-6.18s-17.86-9.72-24.99-16.8
	c-7.13-7.08-12.76-15.41-16.88-24.99s-6.18-19.83-6.18-30.75c0-10.81,2.06-21,6.18-30.59s9.75-17.94,16.88-25.07
	s15.46-12.76,24.99-16.88s19.75-6.18,30.67-6.18c10.81,0,21,2.06,30.59,6.18c9.58,4.12,17.94,9.75,25.07,16.88
	c7.13,7.13,12.76,15.49,16.88,25.07s6.18,19.78,6.18,30.59c0,2.9-0.14,5.71-0.42,8.44c-0.28,2.73-0.7,5.38-1.25,7.94L138.71,116.38
	L138.71,116.38z M113.3,121.73c0.33-0.45,0.17-1-0.5-1.67c-0.67-0.67-1.45-1.42-2.34-2.26c-0.89-0.84-1.67-1.67-2.34-2.51
	c-0.67-0.84-0.89-1.7-0.67-2.59c0.56-1.78,1.14-3.34,1.76-4.68c0.61-1.34,0.95-2.45,1-3.34c0.06-0.89-0.33-1.56-1.17-2.01
	c-0.84-0.45-2.42-0.67-4.76-0.67c-1.23,0-2.26,0.06-3.09,0.17c-0.84,0.11-1.59,0.2-2.26,0.25c-0.67,0.06-1.37,0.11-2.09,0.17
	c-0.72,0.06-1.59,0.03-2.59-0.08c-1.56-0.11-2.76-0.39-3.59-0.84c-0.84-0.45-1.64-0.89-2.42-1.34c-0.78-0.45-1.73-0.86-2.84-1.25
	s-2.73-0.64-4.85-0.75c-3.01-0.11-5.15-0.22-6.44-0.33c-1.28-0.11-2.2-0.25-2.76-0.42c-0.56-0.17-1-0.28-1.34-0.33
	c-0.33-0.06-1-0.08-2.01-0.08c-1,0-2.79,0.45-5.35,1.34c-2.56,0.89-5.15,1.95-7.77,3.18s-4.93,2.45-6.94,3.68
	c-2.01,1.23-3.01,2.23-3.01,3.01c0,4.57,0.47,8.19,1.42,10.86c0.95,2.67,2.03,4.62,3.26,5.85c0.56,0.56,1.31,0.92,2.26,1.09
	c0.95,0.17,1.98,0.31,3.09,0.42c1.11,0.11,2.15,0.25,3.09,0.42c0.95,0.17,1.7,0.59,2.26,1.25c1.11,1.34,2.48,1.87,4.1,1.59
	c1.62-0.28,3.18-0.64,4.68-1.09c1.5-0.45,2.81-0.61,3.93-0.5s1.73,1.17,1.84,3.18c0,0.89,0.17,1.56,0.5,2.01s0.75,0.81,1.25,1.09
	c0.5,0.28,1.14,0.61,1.92,1c0.78,0.39,1.62,0.98,2.51,1.76c1,0.89,1.37,1.73,1.09,2.51c-0.28,0.78-0.72,1.53-1.34,2.26
	c-0.61,0.72-1.17,1.5-1.67,2.34c-0.5,0.84-0.47,1.64,0.08,2.42c0.78,1.23,1.62,2.12,2.51,2.67c0.89,0.56,1.76,1.06,2.59,1.5
	c0.84,0.45,1.59,0.92,2.26,1.42c0.67,0.5,1.11,1.31,1.34,2.42c0.11,0.33,0.56,0.98,1.34,1.92c0.78,0.95,1.53,1.89,2.26,2.84
	c0.72,0.95,1.31,1.78,1.76,2.51c0.45,0.72,0.33,0.98-0.33,0.75c1.34,0.33,2.76,0.5,4.26,0.5c1.5,0,2.48-0.33,2.93-1
	c0.22-0.45,0.33-0.61,0.33-0.5s0.17,0.11,0.5,0c0.33-0.11,1.17-0.61,2.51-1.5s2.23-2.09,2.67-3.59c0.45-1.5,0.67-3.12,0.67-4.85
	c0-1.73-0.08-3.48-0.25-5.27s-0.14-3.45,0.08-5.01c0.22-1.45,0.59-2.51,1.09-3.18c0.5-0.67,0.95-1.25,1.34-1.76
	c0.39-0.5,0.72-1.2,1-2.09c0.28-0.89,0.25-2.34-0.08-4.35c-0.33-2.56,0-4.4,1-5.52S112.75,122.62,113.3,121.73L113.3,121.73z
	 M132.69,96.99c-0.89,0-1.06,0.25-0.5,0.75c0.56,0.5,1.42,0.98,2.59,1.42c1.17,0.45,2.42,0.72,3.76,0.84
	c1.34,0.11,2.45-0.17,3.34-0.84c0.78-0.78,2.09-1.39,3.93-1.84c1.84-0.45,3.71-0.98,5.6-1.59c1.89-0.61,3.57-1.45,5.01-2.51
	c1.45-1.06,2.28-2.59,2.51-4.6c0.11-2.01,0.08-3.87-0.08-5.6c-0.17-1.73-0.53-3.45-1.09-5.18c-0.56-1.73-1.31-3.51-2.26-5.35
	c-0.95-1.84-2.15-3.93-3.59-6.27c-1.56-2.45-2.98-4.49-4.26-6.1s-2.54-3.01-3.76-4.18c-1.23-1.17-2.51-2.23-3.84-3.18
	c-1.34-0.95-2.9-1.98-4.68-3.09c-1.67-1-3.4-2.09-5.18-3.26c-1.78-1.17-3.68-1.95-5.68-2.34c-2.01-0.39-4.18-0.14-6.52,0.75
	s-4.96,2.84-7.86,5.85c-0.89,0.89-1.92,1.89-3.09,3.01c-1.17,1.11-2.42,2.2-3.76,3.26s-2.65,1.92-3.93,2.59
	c-1.28,0.67-2.37,1-3.26,1c-0.89,0-2.31,0.25-4.26,0.75c-1.95,0.5-3.87,1.34-5.77,2.51c-1.89,1.17-3.54,2.7-4.93,4.6
	c-1.39,1.89-2.03,4.18-1.92,6.85c0.11,3.01,0.64,4.96,1.59,5.85c0.95,0.89,2.17,1.39,3.68,1.5c1.5,0.11,3.29,0.22,5.35,0.33
	c2.06,0.11,4.32,0.84,6.77,2.17c2.79,0.11,5.4,0.39,7.86,0.84c2.12,0.33,4.26,0.78,6.44,1.34c2.17,0.56,3.98,1.28,5.43,2.17
	c1.67,1,2.34,1.73,2.01,2.17c-0.33,0.45-0.92,0.84-1.76,1.17c-0.84,0.33-1.53,0.67-2.09,1c-0.56,0.33-0.22,0.95,1,1.84
	c1.67,1.34,2.93,2.15,3.76,2.42c0.84,0.28,1.7,0.33,2.59,0.17c0.89-0.17,2.12-0.42,3.68-0.75
	C127.06,97.16,129.46,96.99,132.69,96.99L132.69,96.99z M172.3,126.74c1.89,0,3.45,0.64,4.68,1.92c1.23,1.28,1.84,2.81,1.84,4.6
	v33.6c0,0.78-0.5,1.84-1.5,3.18c-1,1.34-2.23,2.62-3.68,3.84c-1.45,1.23-2.9,2.31-4.35,3.26c-1.45,0.95-2.62,1.42-3.51,1.42h-22.56
	c-1.89,0-3.45-0.61-4.68-1.84c-1.23-1.23-1.84-2.73-1.84-4.51v-38.95c0-1.78,0.61-3.32,1.84-4.6c1.23-1.28,2.79-1.92,4.68-1.92
	H172.3L172.3,126.74z M149.07,137.11c-0.89,0-1.5,0.78-1.84,2.34c-0.33,1.56-0.5,2.79-0.5,3.68c0,1,0.2,2.01,0.59,3.01
	c0.39,1,0.98,1.5,1.76,1.5h17.22c0.45,0,0.81-0.25,1.09-0.75c0.28-0.5,0.47-1.03,0.59-1.59c0.11-0.67,0.17-1.45,0.17-2.34
	c0-1-0.11-2.23-0.33-3.68s-0.72-2.17-1.5-2.17L149.07,137.11L149.07,137.11z M167.96,165.52c0.33-1.34,0.5-2.56,0.5-3.68
	c0-0.89-0.2-1.76-0.59-2.59c-0.39-0.84-1.14-1.25-2.26-1.25h-15.88c-0.89,0-1.5,0.42-1.84,1.25c-0.33,0.84-0.56,1.7-0.67,2.59
	c-0.11,1.11-0.06,2.34,0.17,3.68c0,0.89,0.33,1.67,1,2.34c0.67,0.67,1.34,1,2.01,1h14.71c0.89,0,1.59-0.33,2.09-1
	C167.71,167.19,167.96,166.41,167.96,165.52L167.96,165.52z"/>
</svg>
