<?xml version="1.0" encoding="utf-8"?>
<!-- Generator: Adobe Illustrator 23.0.0, SVG Export Plug-In . SVG Version: 6.00 Build 0)  -->
<!DOCTYPE svg PUBLIC "-//W3C//DTD SVG 1.1//EN" "http://www.w3.org/Graphics/SVG/1.1/DTD/svg11.dtd" [
	<!ENTITY ns_extend "http://ns.adobe.com/Extensibility/1.0/">
	<!ENTITY ns_ai "http://ns.adobe.com/AdobeIllustrator/10.0/">
	<!ENTITY ns_graphs "http://ns.adobe.com/Graphs/1.0/">
	<!ENTITY ns_vars "http://ns.adobe.com/Variables/1.0/">
	<!ENTITY ns_imrep "http://ns.adobe.com/ImageReplacement/1.0/">
	<!ENTITY ns_sfw "http://ns.adobe.com/SaveForWeb/1.0/">
	<!ENTITY ns_custom "http://ns.adobe.com/GenericCustomNamespace/1.0/">
	<!ENTITY ns_adobe_xpath "http://ns.adobe.com/XPath/1.0/">
	<!ENTITY st0 "fill:#42392B;">
]>
<svg version="1.1" id="图层_1" xmlns:x="&ns_extend;" xmlns:i="&ns_ai;" xmlns:graph="&ns_graphs;"
	 xmlns="http://www.w3.org/2000/svg" xmlns:xlink="http://www.w3.org/1999/xlink" x="0px" y="0px" viewBox="0 0 200.2 200"
	 style="enable-background:new 0 0 200.2 200;" xml:space="preserve">
<metadata>
	<sfw  xmlns="&ns_sfw;">
		<slices></slices>
		<sliceSourceBounds  bottomLeftOrigin="true" height="165.01" width="133.33" x="33.43" y="17.5"></sliceSourceBounds>
	</sfw>
</metadata>
<path style="&st0;" d="M140.41,112.27c15.88,6.34,26.35,18.05,26.35,35.76v18.44c0,8.86-6.89,16.03-15.38,16.03H48.81
	c-8.5,0-15.38-7.18-15.38-16.03v-18.45c0-17.72,10.48-29.42,26.35-35.76c2.7-1.08,5.76-0.38,7.78,1.78
	c0.96,1.02,1.78,1.85,2.48,2.48c8.36,7.5,19.02,11.61,30.05,11.59c11.38,0.02,22.36-4.36,30.82-12.29c0.5-0.47,1.08-1.06,1.75-1.77
	C134.67,111.9,137.72,111.2,140.41,112.27z M100.1,17.48c21.24,0,38.46,17.94,38.46,40.08l0,0v18.46
	c0,22.14-17.22,40.08-38.46,40.07c-21.24,0-38.45-17.94-38.45-40.07V57.57C61.64,35.43,78.86,17.48,100.1,17.48z"/>
</svg>
