<?xml version="1.0" encoding="utf-8"?>
<!-- Generator: Adobe Illustrator 23.0.0, SVG Export Plug-In . SVG Version: 6.00 Build 0)  -->
<!DOCTYPE svg PUBLIC "-//W3C//DTD SVG 1.1//EN" "http://www.w3.org/Graphics/SVG/1.1/DTD/svg11.dtd" [
	<!ENTITY ns_extend "http://ns.adobe.com/Extensibility/1.0/">
	<!ENTITY ns_ai "http://ns.adobe.com/AdobeIllustrator/10.0/">
	<!ENTITY ns_graphs "http://ns.adobe.com/Graphs/1.0/">
	<!ENTITY ns_vars "http://ns.adobe.com/Variables/1.0/">
	<!ENTITY ns_imrep "http://ns.adobe.com/ImageReplacement/1.0/">
	<!ENTITY ns_sfw "http://ns.adobe.com/SaveForWeb/1.0/">
	<!ENTITY ns_custom "http://ns.adobe.com/GenericCustomNamespace/1.0/">
	<!ENTITY ns_adobe_xpath "http://ns.adobe.com/XPath/1.0/">
]>
<svg version="1.1" id="图层_1" xmlns:x="&ns_extend;" xmlns:i="&ns_ai;" xmlns:graph="&ns_graphs;"
	 xmlns="http://www.w3.org/2000/svg" xmlns:xlink="http://www.w3.org/1999/xlink" x="0px" y="0px" viewBox="0 0 200 200"
	 style="enable-background:new 0 0 200 200;" xml:space="preserve">
<metadata>
	<sfw  xmlns="&ns_sfw;">
		<slices></slices>
		<sliceSourceBounds  bottomLeftOrigin="true" height="176.34" width="174.75" x="8.08" y="8.98"></sliceSourceBounds>
	</sfw>
</metadata>
<path d="M91.45,53.25v22.04c0.01,9.13,7.48,16.53,16.69,16.52c9.2-0.01,16.66-7.4,16.67-16.52V53.25h46.91
	c6.14,0,11.12,4.94,11.12,11.02c0,0.9-0.11,1.8-0.33,2.67l-11.12,44.08c-1.24,4.9-5.68,8.35-10.78,8.35H61.21
	c-1.47,0-2.87-0.28-4.17-0.8l1.67,11.83h102.22c4.61,0,8.34,3.7,8.34,8.27c0,4.57-3.73,8.27-8.34,8.27H55.31
	c-0.97,0-1.91-0.17-2.78-0.47c-4.55,0.61-8.74-2.54-9.37-7.04l-9.15-64.51c-1.17-8.15-2.41-16.28-3.71-24.41
	c-0.12-0.85-0.4-1.67-0.83-2.42c-2.06-6.18-7.59-10.59-14.12-11.27l0.02-0.15c-4.57-0.58-7.8-4.72-7.22-9.25
	c0.58-4.53,4.76-7.73,9.33-7.15c0.55,0.07,1.1,0.2,1.63,0.37c16.08,2.66,27.87,16.46,27.87,32.62
	C46.97,53.25,91.45,53.25,91.45,53.25z M52.53,191.02c-9.21,0-16.68-7.4-16.68-16.53c0-9.13,7.47-16.53,16.68-16.53
	s16.68,7.4,16.68,16.53C69.21,183.61,61.74,191.02,52.53,191.02z M158.16,191.02c-9.21,0-16.68-7.4-16.68-16.53
	c0-9.13,7.47-16.53,16.68-16.53s16.68,7.4,16.68,16.53C174.84,183.61,167.37,191.02,158.16,191.02z"/>
<path d="M113.68,33.76l5.96,5.91c2.17,2.15,5.69,2.15,7.86,0c2.17-2.15,2.17-5.64,0-7.79l-15.72-15.58
	c-1.35-1.34-3.31-1.9-5.18-1.48c-1.19,0.17-2.3,0.71-3.15,1.56L87.73,31.96c-2.17,2.15-2.17,5.64,0,7.79c2.17,2.15,5.69,2.15,7.86,0
	l6.97-6.91v43.38c0,3.04,2.49,5.51,5.56,5.51c3.07,0,5.56-2.47,5.56-5.51V33.76z"/>
</svg>
