<?xml version="1.0" encoding="utf-8"?>
<!-- Generator: Adobe Illustrator 23.0.0, SVG Export Plug-In . SVG Version: 6.00 Build 0)  -->
<!DOCTYPE svg PUBLIC "-//W3C//DTD SVG 1.1//EN" "http://www.w3.org/Graphics/SVG/1.1/DTD/svg11.dtd" [
	<!ENTITY ns_extend "http://ns.adobe.com/Extensibility/1.0/">
	<!ENTITY ns_ai "http://ns.adobe.com/AdobeIllustrator/10.0/">
	<!ENTITY ns_graphs "http://ns.adobe.com/Graphs/1.0/">
	<!ENTITY ns_vars "http://ns.adobe.com/Variables/1.0/">
	<!ENTITY ns_imrep "http://ns.adobe.com/ImageReplacement/1.0/">
	<!ENTITY ns_sfw "http://ns.adobe.com/SaveForWeb/1.0/">
	<!ENTITY ns_custom "http://ns.adobe.com/GenericCustomNamespace/1.0/">
	<!ENTITY ns_adobe_xpath "http://ns.adobe.com/XPath/1.0/">
	<!ENTITY st0 "fill:#42392B;">
	<!ENTITY st1 "fill:#FFE1B4;">
]>
<svg version="1.1" id="图层_1" xmlns:x="&ns_extend;" xmlns:i="&ns_ai;" xmlns:graph="&ns_graphs;"
	 xmlns="http://www.w3.org/2000/svg" xmlns:xlink="http://www.w3.org/1999/xlink" x="0px" y="0px" viewBox="0 0 36 36"
	 style="enable-background:new 0 0 36 36;" xml:space="preserve">
<metadata>
	<sfw  xmlns="&ns_sfw;">
		<slices></slices>
		<sliceSourceBounds  bottomLeftOrigin="true" height="32" width="32" x="2" y="2"></sliceSourceBounds>
	</sfw>
</metadata>
<g>
	<circle style="&st0;" cx="18" cy="18" r="16"/>
</g>
<path style="&st1;" d="M27.33,16.69c-0.07-0.41-0.47-0.83-0.88-0.92l-0.3-0.07c-0.72-0.22-1.36-0.7-1.76-1.4
	c-0.41-0.71-0.5-1.51-0.32-2.24l0.09-0.29c0.12-0.4-0.04-0.95-0.35-1.22c0,0-0.29-0.24-1.1-0.71c-0.81-0.47-1.16-0.6-1.16-0.6
	c-0.39-0.14-0.95-0.01-1.23,0.3l-0.21,0.23c-0.55,0.52-1.28,0.83-2.09,0.83c-0.81,0-1.55-0.32-2.1-0.84l-0.21-0.22
	c-0.28-0.31-0.84-0.44-1.23-0.3c0,0-0.35,0.13-1.17,0.6c-0.81,0.47-1.1,0.71-1.1,0.71c-0.32,0.27-0.48,0.82-0.36,1.22l0.09,0.29
	c0.17,0.73,0.08,1.53-0.32,2.24c-0.41,0.7-1.05,1.19-1.77,1.4l-0.3,0.07c-0.41,0.09-0.8,0.51-0.88,0.92c0,0-0.07,0.37-0.07,1.31
	c0,0.94,0.07,1.31,0.07,1.31c0.07,0.41,0.47,0.83,0.88,0.92l0.29,0.06c0.72,0.22,1.37,0.7,1.78,1.41c0.41,0.71,0.5,1.51,0.32,2.24
	l-0.09,0.29c-0.12,0.4,0.04,0.95,0.36,1.22c0,0,0.29,0.24,1.1,0.71c0.81,0.47,1.16,0.6,1.16,0.6c0.39,0.14,0.95,0.01,1.23-0.3
	l0.2-0.22c0.55-0.52,1.29-0.84,2.1-0.84c0.81,0,1.55,0.32,2.1,0.84h0l0.2,0.22c0.28,0.31,0.84,0.44,1.23,0.3c0,0,0.35-0.13,1.17-0.6
	c0.81-0.47,1.1-0.71,1.1-0.71c0.32-0.27,0.48-0.82,0.36-1.22l-0.09-0.3c-0.17-0.73-0.08-1.53,0.32-2.23
	c0.41-0.71,1.06-1.19,1.78-1.41v0l0.29-0.07c0.41-0.09,0.8-0.51,0.88-0.92c0,0,0.07-0.37,0.07-1.31
	C27.4,17.06,27.33,16.69,27.33,16.69z M17.99,21.03c-1.67,0-3.02-1.36-3.02-3.03c0-1.67,1.35-3.03,3.02-3.03
	c1.67,0,3.02,1.36,3.02,3.03C21.01,19.68,19.66,21.03,17.99,21.03z"/>
</svg>
