<?xml version="1.0" encoding="utf-8"?>
<!-- Generator: Adobe Illustrator 23.0.0, SVG Export Plug-In . SVG Version: 6.00 Build 0)  -->
<!DOCTYPE svg PUBLIC "-//W3C//DTD SVG 1.1//EN" "http://www.w3.org/Graphics/SVG/1.1/DTD/svg11.dtd" [
	<!ENTITY ns_extend "http://ns.adobe.com/Extensibility/1.0/">
	<!ENTITY ns_ai "http://ns.adobe.com/AdobeIllustrator/10.0/">
	<!ENTITY ns_graphs "http://ns.adobe.com/Graphs/1.0/">
	<!ENTITY ns_vars "http://ns.adobe.com/Variables/1.0/">
	<!ENTITY ns_imrep "http://ns.adobe.com/ImageReplacement/1.0/">
	<!ENTITY ns_sfw "http://ns.adobe.com/SaveForWeb/1.0/">
	<!ENTITY ns_custom "http://ns.adobe.com/GenericCustomNamespace/1.0/">
	<!ENTITY ns_adobe_xpath "http://ns.adobe.com/XPath/1.0/">
]>
<svg version="1.1" id="图层_1" xmlns:x="&ns_extend;" xmlns:i="&ns_ai;" xmlns:graph="&ns_graphs;"
	 xmlns="http://www.w3.org/2000/svg" xmlns:xlink="http://www.w3.org/1999/xlink" x="0px" y="0px" viewBox="0 0 200 200"
	 style="enable-background:new 0 0 200 200;" xml:space="preserve">
<metadata>
	<sfw  xmlns="&ns_sfw;">
		<slices></slices>
		<sliceSourceBounds  bottomLeftOrigin="true" height="175" width="175" x="12.5" y="12.5"></sliceSourceBounds>
	</sfw>
</metadata>
<path d="M113.68,33.76l5.96,5.91c2.17,2.15,5.69,2.15,7.86,0c2.17-2.15,2.17-5.64,0-7.79l-15.72-15.58
	c-1.35-1.34-3.31-1.9-5.18-1.48c-1.19,0.17-2.3,0.71-3.15,1.56L87.73,31.96c-2.17,2.15-2.17,5.64,0,7.79c2.17,2.15,5.69,2.15,7.86,0
	l6.97-6.91v43.38c0,3.04,2.49,5.51,5.56,5.51c3.07,0,5.56-2.47,5.56-5.51V33.76z"/>
<path d="M100,12.5c-48.28,0-87.5,39.22-87.5,87.5s39.22,87.5,87.5,87.5s87.5-39.22,87.5-87.5S148.28,12.5,100,12.5z M146.56,137.81
	l-8.91,8.91L100,108.91l-37.81,37.66l-8.91-8.91L91.25,100L53.44,62.19l8.91-8.91L100,91.25l37.81-37.81l8.91,8.91L108.91,100
	L146.56,137.81L146.56,137.81z"/>
</svg>
