<?xml version="1.0" encoding="utf-8"?>
<!-- Generator: Adobe Illustrator 23.0.0, SVG Export Plug-In . SVG Version: 6.00 Build 0)  -->
<!DOCTYPE svg PUBLIC "-//W3C//DTD SVG 1.1//EN" "http://www.w3.org/Graphics/SVG/1.1/DTD/svg11.dtd" [
	<!ENTITY ns_extend "http://ns.adobe.com/Extensibility/1.0/">
	<!ENTITY ns_ai "http://ns.adobe.com/AdobeIllustrator/10.0/">
	<!ENTITY ns_graphs "http://ns.adobe.com/Graphs/1.0/">
	<!ENTITY ns_vars "http://ns.adobe.com/Variables/1.0/">
	<!ENTITY ns_imrep "http://ns.adobe.com/ImageReplacement/1.0/">
	<!ENTITY ns_sfw "http://ns.adobe.com/SaveForWeb/1.0/">
	<!ENTITY ns_custom "http://ns.adobe.com/GenericCustomNamespace/1.0/">
	<!ENTITY ns_adobe_xpath "http://ns.adobe.com/XPath/1.0/">
	<!ENTITY st0 "fill:#666666;">
]>
<svg version="1.1" id="图层_1" xmlns:x="&ns_extend;" xmlns:i="&ns_ai;" xmlns:graph="&ns_graphs;"
	 xmlns="http://www.w3.org/2000/svg" xmlns:xlink="http://www.w3.org/1999/xlink" x="0px" y="0px" viewBox="0 0 200 200"
	 style="enable-background:new 0 0 200 200;" xml:space="preserve">
<metadata>
	<sfw  xmlns="&ns_sfw;">
		<slices></slices>
		<sliceSourceBounds  bottomLeftOrigin="true" height="200" width="199.59" x="0.21" y="0"></sliceSourceBounds>
	</sfw>
</metadata>
<path style="&st0;" d="M184.48,197.36l-37.62-37.64c-8.98-8.79-10.41-22.73-3.28-33.28c9.9-14.12,14.14-31.31,11.91-48.42
	c-0.51-3.83-1.33-7.62-2.44-11.29c-11.13-36.35-49.75-56.88-86.09-45.78c-36.35,11.11-56.89,49.73-45.78,86.09
	c11.11,36.35,49.71,56.89,86.09,45.78c4.73-1.45,9.75,1.21,11.19,5.96c1.45,4.73-1.21,9.75-5.96,11.19
	C66.73,184,18.02,158.13,4.01,112.3s11.88-94.49,57.7-108.5c45.84-14,94.49,11.87,108.5,57.68c1.41,4.63,2.44,9.41,3.07,14.22
	c2.81,21.56-2.52,43.24-14.92,60.9c-2.19,3.22-1.76,7.56,1.11,10.35l37.71,37.71c3.5,3.52,3.5,9.2,0,12.7
	c-1.76,1.76-4.04,2.64-6.35,2.64C188.54,200,186.24,199.12,184.48,197.36z"/>
</svg>
