<?xml version="1.0" encoding="utf-8"?>
<!-- Generator: Adobe Illustrator 23.0.0, SVG Export Plug-In . SVG Version: 6.00 Build 0)  -->
<!DOCTYPE svg PUBLIC "-//W3C//DTD SVG 1.1//EN" "http://www.w3.org/Graphics/SVG/1.1/DTD/svg11.dtd" [
	<!ENTITY ns_extend "http://ns.adobe.com/Extensibility/1.0/">
	<!ENTITY ns_ai "http://ns.adobe.com/AdobeIllustrator/10.0/">
	<!ENTITY ns_graphs "http://ns.adobe.com/Graphs/1.0/">
	<!ENTITY ns_vars "http://ns.adobe.com/Variables/1.0/">
	<!ENTITY ns_imrep "http://ns.adobe.com/ImageReplacement/1.0/">
	<!ENTITY ns_sfw "http://ns.adobe.com/SaveForWeb/1.0/">
	<!ENTITY ns_custom "http://ns.adobe.com/GenericCustomNamespace/1.0/">
	<!ENTITY ns_adobe_xpath "http://ns.adobe.com/XPath/1.0/">
]>
<svg version="1.1" id="图层_1" xmlns:x="&ns_extend;" xmlns:i="&ns_ai;" xmlns:graph="&ns_graphs;"
	 xmlns="http://www.w3.org/2000/svg" xmlns:xlink="http://www.w3.org/1999/xlink" x="0px" y="0px" viewBox="0 0 36 36"
	 style="enable-background:new 0 0 36 36;" xml:space="preserve">
<style type="text/css">
	.st0{fill:#D2872E;}
	.st1{fill:#FFE1B4;}
</style>
<metadata>
	<sfw  xmlns="&ns_sfw;">
		<slices></slices>
		<sliceSourceBounds  bottomLeftOrigin="true" height="32" width="32" x="2" y="2"></sliceSourceBounds>
	</sfw>
</metadata>
<g>
	<circle class="st0" cx="18" cy="18" r="16"/>
</g>
<path class="st1" d="M14,27.2c-0.8,0.5-1.9,0.2-2.4-0.6c-0.2-0.4-0.3-0.9-0.2-1.3l1.1-4.5c0-0.1,0-0.2-0.1-0.3l-3.4-3
	c-0.7-0.6-0.8-1.7-0.2-2.4c0.3-0.4,0.7-0.6,1.2-0.6l4.5-0.4c0.1,0,0.2-0.1,0.2-0.2l1.7-4.3c0.4-0.9,1.4-1.3,2.3-0.9
	c0.4,0.2,0.8,0.5,0.9,0.9l1.7,4.3c0,0.1,0.1,0.2,0.2,0.2l4.5,0.4c1,0.1,1.6,0.9,1.6,1.9c0,0.5-0.3,0.9-0.6,1.2l-3.5,3
	c-0.1,0.1-0.1,0.2-0.1,0.3l1,4.5c0.2,0.9-0.4,1.9-1.3,2.1c-0.4,0.1-0.9,0-1.3-0.2l-3.9-2.4c-0.1,0-0.2,0-0.3,0L14,27.2L14,27.2z"/>
</svg>
